<svg width="20" height="20" viewBox="0 0 20 20" fill="none" xmlns="http://www.w3.org/2000/svg">
<path fill-rule="evenodd" clip-rule="evenodd" d="M10.0002 3.75C8.64939 3.75052 7.3351 4.18866 6.2542 4.9988C5.1733 5.80894 4.38395 6.94746 4.0044 8.24385C3.62484 9.54023 3.67551 10.9247 4.1488 12.1899C4.62209 13.455 5.49254 14.5328 6.62977 15.2618C7.767 15.9908 9.10979 16.3317 10.457 16.2335C11.8042 16.1352 13.0834 15.6032 14.1029 14.717C15.1224 13.8308 15.8273 12.6382 16.1121 11.3177C16.3969 9.9973 16.2462 8.62013 15.6827 7.3925C15.6214 7.24324 15.6201 7.07605 15.6792 6.9259C15.7384 6.77576 15.8533 6.6543 15.9999 6.58696C16.1466 6.51961 16.3136 6.51159 16.466 6.56458C16.6184 6.61757 16.7444 6.72746 16.8177 6.87125C17.4939 8.34449 17.6746 9.99716 17.3328 11.5817C16.9909 13.1663 16.1449 14.5974 14.9213 15.6608C13.6978 16.7242 12.1627 17.3625 10.546 17.4802C8.92925 17.5979 7.31789 17.1886 5.95328 16.3136C4.58867 15.4387 3.54427 14.1452 2.97652 12.6268C2.40877 11.1085 2.34823 9.44703 2.80398 7.89139C3.25973 6.33575 4.20723 4.96964 5.50454 3.99769C6.80186 3.02574 8.37917 2.50028 10.0002 2.5V3.75Z" fill="#82C43C"/>
<path d="M10 5.58249V0.667486C10 0.608106 10.017 0.549962 10.0488 0.499862C10.0807 0.449762 10.1262 0.40978 10.18 0.384597C10.2337 0.359415 10.2936 0.350074 10.3525 0.35767C10.4114 0.365266 10.4669 0.389483 10.5125 0.427486L13.4625 2.88499C13.6125 3.00999 13.6125 3.23999 13.4625 3.36499L10.5125 5.82249C10.4669 5.86049 10.4114 5.88471 10.3525 5.8923C10.2936 5.8999 10.2337 5.89056 10.18 5.86537C10.1262 5.84019 10.0807 5.80021 10.0488 5.75011C10.017 5.70001 10 5.64187 10 5.58249Z" fill="#82C43C"/>
</svg>
