<svg width="20" height="20" viewBox="0 0 20 20" fill="none" xmlns="http://www.w3.org/2000/svg">
<g clip-path="url(#clip0_224_51)">
<path d="M10 20C10.663 20 11.2989 19.7366 11.7678 19.2678C12.2366 18.7989 12.5 18.163 12.5 17.5H7.5C7.5 18.163 7.76339 18.7989 8.23223 19.2678C8.70107 19.7366 9.33696 20 10 20ZM10 2.3975L9.00375 2.59875C7.8737 2.829 6.85791 3.44262 6.12831 4.33577C5.39872 5.22892 5.00012 6.34673 5 7.5C5 8.285 4.8325 10.2462 4.42625 12.1775C4.22625 13.1362 3.95625 14.135 3.5975 15H16.4025C16.0437 14.135 15.775 13.1375 15.5737 12.1775C15.1675 10.2462 15 8.285 15 7.5C14.9996 6.34694 14.6009 5.22943 13.8713 4.33654C13.1417 3.44365 12.1261 2.8302 10.9963 2.6L10 2.3975ZM17.775 15C18.0538 15.5587 18.3762 16.0012 18.75 16.25H1.25C1.62375 16.0012 1.94625 15.5587 2.225 15C3.35 12.75 3.75 8.59999 3.75 7.5C3.75 4.475 5.9 1.94999 8.75625 1.37374C8.7388 1.19994 8.75798 1.0244 8.81254 0.858461C8.8671 0.69252 8.95584 0.539857 9.07303 0.410318C9.19022 0.280778 9.33325 0.177238 9.49292 0.106376C9.65258 0.0355132 9.82532 -0.00109863 10 -0.00109863C10.1747 -0.00109863 10.3474 0.0355132 10.5071 0.106376C10.6667 0.177238 10.8098 0.280778 10.927 0.410318C11.0442 0.539857 11.1329 0.69252 11.1875 0.858461C11.242 1.0244 11.2612 1.19994 11.2437 1.37374C12.6566 1.66112 13.9267 2.42795 14.839 3.54437C15.7514 4.6608 16.2498 6.05821 16.25 7.5C16.25 8.59999 16.65 12.75 17.775 15Z" fill="#92929D"/>
</g>
<defs>
<clipPath id="clip0_224_51">
<rect width="20" height="20" fill="white"/>
</clipPath>
</defs>
</svg>
