<svg width="20" height="20" viewBox="0 0 20 20" fill="none" xmlns="http://www.w3.org/2000/svg">
<g clip-path="url(#clip0_125_179)">
<path d="M8.125 1.25C7.62772 1.25 7.15081 1.44754 6.79917 1.79917C6.44754 2.15081 6.25 2.62772 6.25 3.125V3.75H1.875C1.37772 3.75 0.900805 3.94754 0.549175 4.29917C0.197544 4.65081 0 5.12772 0 5.625L0 15.625C0 16.1223 0.197544 16.5992 0.549175 16.9508C0.900805 17.3025 1.37772 17.5 1.875 17.5H18.125C18.6223 17.5 19.0992 17.3025 19.4508 16.9508C19.8025 16.5992 20 16.1223 20 15.625V5.625C20 5.12772 19.8025 4.65081 19.4508 4.29917C19.0992 3.94754 18.6223 3.75 18.125 3.75H13.75V3.125C13.75 2.62772 13.5525 2.15081 13.2008 1.79917C12.8492 1.44754 12.3723 1.25 11.875 1.25H8.125ZM8.125 2.5H11.875C12.0408 2.5 12.1997 2.56585 12.3169 2.68306C12.4342 2.80027 12.5 2.95924 12.5 3.125V3.75H7.5V3.125C7.5 2.95924 7.56585 2.80027 7.68306 2.68306C7.80027 2.56585 7.95924 2.5 8.125 2.5ZM10.4825 11.1425L18.75 8.93875V15.625C18.75 15.7908 18.6842 15.9497 18.5669 16.0669C18.4497 16.1842 18.2908 16.25 18.125 16.25H1.875C1.70924 16.25 1.55027 16.1842 1.43306 16.0669C1.31585 15.9497 1.25 15.7908 1.25 15.625V8.9375L9.5175 11.1425C9.83366 11.2267 10.1663 11.2267 10.4825 11.1425ZM1.875 5H18.125C18.2908 5 18.4497 5.06585 18.5669 5.18306C18.6842 5.30027 18.75 5.45924 18.75 5.625V7.645L10.1612 9.935C10.0556 9.96321 9.9444 9.96321 9.83875 9.935L1.25 7.645V5.625C1.25 5.45924 1.31585 5.30027 1.43306 5.18306C1.55027 5.06585 1.70924 5 1.875 5Z" fill="#92929D"/>
</g>
<defs>
<clipPath id="clip0_125_179">
<rect width="20" height="20" fill="white"/>
</clipPath>
</defs>
</svg>
