<svg width="20" height="20" viewBox="0 0 20 20" fill="none" xmlns="http://www.w3.org/2000/svg">
<g clip-path="url(#clip0_125_181)">
<path d="M6.875 11.8887C6.97 13.0812 7.9125 14.01 9.6025 14.12V15H10.3525V14.1138C12.1025 13.9913 13.125 13.0563 13.125 11.6988C13.125 10.465 12.3425 9.82875 10.9438 9.49875L10.3525 9.35875V6.9625C11.1025 7.0475 11.58 7.4575 11.695 8.025H13.01C12.915 6.87625 11.93 5.9775 10.3525 5.88V5H9.6025V5.89875C8.10875 6.045 7.09 6.94375 7.09 8.215C7.09 9.34 7.8475 10.055 9.10625 10.3488L9.6025 10.4712V13.0138C8.83375 12.8975 8.325 12.4762 8.21 11.8887H6.875ZM9.59625 9.18125C8.85875 9.01 8.45875 8.66125 8.45875 8.13625C8.45875 7.54875 8.89 7.10875 9.6025 6.98V9.18L9.59625 9.18125ZM10.4613 10.6725C11.3575 10.88 11.7712 11.2162 11.7712 11.81C11.7712 12.4875 11.2562 12.9525 10.3525 13.0375V10.6475L10.4613 10.6725Z" fill="#92929D"/>
<path d="M10 18.75C7.67936 18.75 5.45376 17.8281 3.81282 16.1872C2.17187 14.5462 1.25 12.3206 1.25 10C1.25 7.67936 2.17187 5.45376 3.81282 3.81282C5.45376 2.17187 7.67936 1.25 10 1.25C12.3206 1.25 14.5462 2.17187 16.1872 3.81282C17.8281 5.45376 18.75 7.67936 18.75 10C18.75 12.3206 17.8281 14.5462 16.1872 16.1872C14.5462 17.8281 12.3206 18.75 10 18.75ZM10 20C12.6522 20 15.1957 18.9464 17.0711 17.0711C18.9464 15.1957 20 12.6522 20 10C20 7.34784 18.9464 4.8043 17.0711 2.92893C15.1957 1.05357 12.6522 0 10 0C7.34784 0 4.8043 1.05357 2.92893 2.92893C1.05357 4.8043 0 7.34784 0 10C0 12.6522 1.05357 15.1957 2.92893 17.0711C4.8043 18.9464 7.34784 20 10 20Z" fill="#92929D"/>
<path d="M10 16.875C8.17664 16.875 6.42795 16.1507 5.13864 14.8614C3.84933 13.572 3.125 11.8234 3.125 10C3.125 8.17664 3.84933 6.42795 5.13864 5.13864C6.42795 3.84933 8.17664 3.125 10 3.125C11.8234 3.125 13.572 3.84933 14.8614 5.13864C16.1507 6.42795 16.875 8.17664 16.875 10C16.875 11.8234 16.1507 13.572 14.8614 14.8614C13.572 16.1507 11.8234 16.875 10 16.875ZM10 17.5C10.9849 17.5 11.9602 17.306 12.8701 16.9291C13.7801 16.5522 14.6069 15.9997 15.3033 15.3033C15.9997 14.6069 16.5522 13.7801 16.9291 12.8701C17.306 11.9602 17.5 10.9849 17.5 10C17.5 9.01509 17.306 8.03982 16.9291 7.12987C16.5522 6.21993 15.9997 5.39314 15.3033 4.6967C14.6069 4.00026 13.7801 3.44781 12.8701 3.0709C11.9602 2.69399 10.9849 2.5 10 2.5C8.01088 2.5 6.10322 3.29018 4.6967 4.6967C3.29018 6.10322 2.5 8.01088 2.5 10C2.5 11.9891 3.29018 13.8968 4.6967 15.3033C6.10322 16.7098 8.01088 17.5 10 17.5Z" fill="#92929D"/>
</g>
<defs>
<clipPath id="clip0_125_181">
<rect width="20" height="20" fill="white"/>
</clipPath>
</defs>
</svg>
