<svg width="20" height="20" viewBox="0 0 20 20" fill="none" xmlns="http://www.w3.org/2000/svg">
<path d="M17.3176 4.55752C17.3758 4.61558 17.4219 4.68455 17.4534 4.76048C17.485 4.83641 17.5012 4.91781 17.5012 5.00002C17.5012 5.08223 17.485 5.16363 17.4534 5.23956C17.4219 5.31549 17.3758 5.38446 17.3176 5.44252L8.56756 14.1925C8.5095 14.2507 8.44053 14.2969 8.3646 14.3284C8.28867 14.3599 8.20727 14.3761 8.12506 14.3761C8.04285 14.3761 7.96145 14.3599 7.88551 14.3284C7.80958 14.2969 7.74061 14.2507 7.68256 14.1925L3.30756 9.81752C3.1902 9.70016 3.12427 9.54099 3.12427 9.37502C3.12427 9.20905 3.1902 9.04988 3.30756 8.93252C3.42492 8.81516 3.58409 8.74923 3.75006 8.74923C3.91603 8.74923 4.0752 8.81516 4.19256 8.93252L8.12506 12.8663L16.4326 4.55752C16.4906 4.49931 16.5596 4.45314 16.6355 4.42163C16.7114 4.39012 16.7928 4.3739 16.8751 4.3739C16.9573 4.3739 17.0387 4.39012 17.1146 4.42163C17.1905 4.45314 17.2595 4.49931 17.3176 4.55752Z" fill="#FAFAFB"/>
</svg>
