<svg width="20" height="20" viewBox="0 0 20 20" fill="none" xmlns="http://www.w3.org/2000/svg">
<path fill-rule="evenodd" clip-rule="evenodd" d="M13.5673 8.93249C13.6255 8.99054 13.6717 9.05951 13.7032 9.13545C13.7347 9.21138 13.7509 9.29278 13.7509 9.37499C13.7509 9.4572 13.7347 9.5386 13.7032 9.61453C13.6717 9.69046 13.6255 9.75943 13.5673 9.81749L9.81731 13.5675C9.75926 13.6257 9.69029 13.6719 9.61436 13.7034C9.53842 13.7349 9.45702 13.7511 9.37481 13.7511C9.2926 13.7511 9.2112 13.7349 9.13527 13.7034C9.05934 13.6719 8.99037 13.6257 8.93231 13.5675L7.05731 11.6925C6.9992 11.6344 6.95311 11.5654 6.92166 11.4895C6.89021 11.4135 6.87402 11.3322 6.87402 11.25C6.87402 11.1678 6.89021 11.0864 6.92166 11.0105C6.95311 10.9346 6.9992 10.8656 7.05731 10.8075C7.17467 10.6901 7.33384 10.6242 7.49981 10.6242C7.58199 10.6242 7.66337 10.6404 7.73929 10.6718C7.81522 10.7033 7.8842 10.7494 7.94231 10.8075L9.37481 12.2412L12.6823 8.93249C12.7404 8.87428 12.8093 8.8281 12.8853 8.7966C12.9612 8.76509 13.0426 8.74887 13.1248 8.74887C13.207 8.74887 13.2884 8.76509 13.3644 8.7966C13.4403 8.8281 13.5093 8.87428 13.5673 8.93249Z" fill="#92929D"/>
<path d="M5 1.875H3.75C3.08696 1.875 2.45107 2.13839 1.98223 2.60723C1.51339 3.07607 1.25 3.71196 1.25 4.375V17.5C1.25 18.163 1.51339 18.7989 1.98223 19.2678C2.45107 19.7366 3.08696 20 3.75 20H16.25C16.913 20 17.5489 19.7366 18.0178 19.2678C18.4866 18.7989 18.75 18.163 18.75 17.5V4.375C18.75 3.71196 18.4866 3.07607 18.0178 2.60723C17.5489 2.13839 16.913 1.875 16.25 1.875H15V3.125H16.25C16.5815 3.125 16.8995 3.2567 17.1339 3.49112C17.3683 3.72554 17.5 4.04348 17.5 4.375V17.5C17.5 17.8315 17.3683 18.1495 17.1339 18.3839C16.8995 18.6183 16.5815 18.75 16.25 18.75H3.75C3.41848 18.75 3.10054 18.6183 2.86612 18.3839C2.6317 18.1495 2.5 17.8315 2.5 17.5V4.375C2.5 4.04348 2.6317 3.72554 2.86612 3.49112C3.10054 3.2567 3.41848 3.125 3.75 3.125H5V1.875Z" fill="#92929D"/>
<path d="M11.875 1.25C12.0408 1.25 12.1997 1.31585 12.3169 1.43306C12.4342 1.55027 12.5 1.70924 12.5 1.875V3.125C12.5 3.29076 12.4342 3.44973 12.3169 3.56694C12.1997 3.68415 12.0408 3.75 11.875 3.75H8.125C7.95924 3.75 7.80027 3.68415 7.68306 3.56694C7.56585 3.44973 7.5 3.29076 7.5 3.125V1.875C7.5 1.70924 7.56585 1.55027 7.68306 1.43306C7.80027 1.31585 7.95924 1.25 8.125 1.25H11.875ZM8.125 0C7.62772 0 7.15081 0.197544 6.79917 0.549175C6.44754 0.900805 6.25 1.37772 6.25 1.875V3.125C6.25 3.62228 6.44754 4.09919 6.79917 4.45083C7.15081 4.80246 7.62772 5 8.125 5H11.875C12.3723 5 12.8492 4.80246 13.2008 4.45083C13.5525 4.09919 13.75 3.62228 13.75 3.125V1.875C13.75 1.37772 13.5525 0.900805 13.2008 0.549175C12.8492 0.197544 12.3723 0 11.875 0L8.125 0Z" fill="#92929D"/>
</svg>
