<svg width="20" height="20" viewBox="0 0 20 20" fill="none" xmlns="http://www.w3.org/2000/svg">
<g clip-path="url(#clip0_125_193)">
<path d="M4.375 0C4.54076 0 4.69973 0.065848 4.81694 0.183058C4.93415 0.300269 5 0.45924 5 0.625V1.25H15V0.625C15 0.45924 15.0658 0.300269 15.1831 0.183058C15.3003 0.065848 15.4592 0 15.625 0C15.7908 0 15.9497 0.065848 16.0669 0.183058C16.1842 0.300269 16.25 0.45924 16.25 0.625V1.25H17.5C18.163 1.25 18.7989 1.51339 19.2678 1.98223C19.7366 2.45107 20 3.08696 20 3.75V17.5C20 18.163 19.7366 18.7989 19.2678 19.2678C18.7989 19.7366 18.163 20 17.5 20H2.5C1.83696 20 1.20107 19.7366 0.732233 19.2678C0.263392 18.7989 0 18.163 0 17.5V3.75C0 3.08696 0.263392 2.45107 0.732233 1.98223C1.20107 1.51339 1.83696 1.25 2.5 1.25H3.75V0.625C3.75 0.45924 3.81585 0.300269 3.93306 0.183058C4.05027 0.065848 4.20924 0 4.375 0ZM2.5 2.5C2.16848 2.5 1.85054 2.6317 1.61612 2.86612C1.3817 3.10054 1.25 3.41848 1.25 3.75V5H18.75V3.75C18.75 3.41848 18.6183 3.10054 18.3839 2.86612C18.1495 2.6317 17.8315 2.5 17.5 2.5H2.5ZM18.75 6.25H1.25V17.5C1.25 17.8315 1.3817 18.1495 1.61612 18.3839C1.85054 18.6183 2.16848 18.75 2.5 18.75H17.5C17.8315 18.75 18.1495 18.6183 18.3839 18.3839C18.6183 18.1495 18.75 17.8315 18.75 17.5V6.25Z" fill="#92929D"/>
<path d="M11.25 9.375C11.25 9.20924 11.3158 9.05027 11.4331 8.93306C11.5503 8.81585 11.7092 8.75 11.875 8.75H18.75V11.25H11.875C11.7092 11.25 11.5503 11.1842 11.4331 11.0669C11.3158 10.9497 11.25 10.7908 11.25 10.625V9.375ZM8.75 13.125V14.375C8.75 14.5408 8.68415 14.6997 8.56694 14.8169C8.44973 14.9342 8.29076 15 8.125 15H1.25V12.5H8.125C8.29076 12.5 8.44973 12.5658 8.56694 12.6831C8.68415 12.8003 8.75 12.9592 8.75 13.125Z" fill="#92929D"/>
</g>
<defs>
<clipPath id="clip0_125_193">
<rect width="20" height="20" fill="white"/>
</clipPath>
</defs>
</svg>
