<svg width="20" height="20" viewBox="0 0 20 20" fill="none" xmlns="http://www.w3.org/2000/svg">
<path d="M0 5C0 4.33696 0.263392 3.70107 0.732233 3.23223C1.20107 2.76339 1.83696 2.5 2.5 2.5H17.5C18.163 2.5 18.7989 2.76339 19.2678 3.23223C19.7366 3.70107 20 4.33696 20 5V15C20 15.663 19.7366 16.2989 19.2678 16.7678C18.7989 17.2366 18.163 17.5 17.5 17.5H2.5C1.83696 17.5 1.20107 17.2366 0.732233 16.7678C0.263392 16.2989 0 15.663 0 15V5ZM2.5 3.75C2.16848 3.75 1.85054 3.8817 1.61612 4.11612C1.3817 4.35054 1.25 4.66848 1.25 5V5.27125L10 10.5212L18.75 5.27125V5C18.75 4.66848 18.6183 4.35054 18.3839 4.11612C18.1495 3.8817 17.8315 3.75 17.5 3.75H2.5ZM18.75 6.72875L12.865 10.26L18.75 13.8812V6.72875ZM18.7075 15.3237L11.6575 10.985L10 11.9788L8.3425 10.985L1.2925 15.3225C1.36353 15.5885 1.5204 15.8236 1.73874 15.9913C1.95708 16.159 2.22468 16.25 2.5 16.25H17.5C17.7752 16.25 18.0426 16.1593 18.261 15.9918C18.4793 15.8243 18.6362 15.5895 18.7075 15.3237ZM1.25 13.8812L7.135 10.26L1.25 6.72875V13.8812Z" fill="#92929D"/>
</svg>
