<svg width="20" height="20" viewBox="0 0 20 20" fill="none" xmlns="http://www.w3.org/2000/svg">
<g clip-path="url(#clip0_126_895)">
<path d="M9.99988 5.94247C9.46704 5.94247 8.93942 6.04742 8.44715 6.25133C7.95487 6.45524 7.50757 6.75411 7.1308 7.13089C6.75402 7.50766 6.45515 7.95496 6.25124 8.44724C6.04733 8.93951 5.94238 9.46714 5.94238 9.99997C5.94238 10.5328 6.04733 11.0604 6.25124 11.5527C6.45515 12.045 6.75402 12.4923 7.1308 12.8691C7.50757 13.2458 7.95487 13.5447 8.44715 13.7486C8.93942 13.9525 9.46704 14.0575 9.99988 14.0575C11.076 14.0575 12.108 13.63 12.869 12.8691C13.6299 12.1081 14.0574 11.0761 14.0574 9.99997C14.0574 8.92386 13.6299 7.89182 12.869 7.13089C12.108 6.36996 11.076 5.94247 9.99988 5.94247ZM7.19238 9.99997C7.19238 9.25538 7.48817 8.54128 8.01468 8.01477C8.54119 7.48826 9.25529 7.19247 9.99988 7.19247C10.7445 7.19247 11.4586 7.48826 11.9851 8.01477C12.5116 8.54128 12.8074 9.25538 12.8074 9.99997C12.8074 10.7446 12.5116 11.4587 11.9851 11.9852C11.4586 12.5117 10.7445 12.8075 9.99988 12.8075C9.25529 12.8075 8.54119 12.5117 8.01468 11.9852C7.48817 11.4587 7.19238 10.7446 7.19238 9.99997Z" fill="#92929D"/>
<path d="M12.2449 1.67861C11.5861 -0.558887 8.41361 -0.558887 7.75486 1.67861L7.63736 2.07736C7.59136 2.23355 7.51099 2.37747 7.40213 2.49856C7.29328 2.61965 7.15871 2.71485 7.00829 2.77718C6.85787 2.83951 6.6954 2.86738 6.53281 2.85876C6.37021 2.85014 6.2116 2.80524 6.06861 2.72736L5.70361 2.52736C3.65361 1.41236 1.41236 3.65486 2.52861 5.70361L2.72736 6.06861C2.80524 6.2116 2.85014 6.37021 2.85876 6.53281C2.86738 6.6954 2.83951 6.85787 2.77718 7.00829C2.71485 7.15871 2.61965 7.29328 2.49856 7.40213C2.37747 7.51099 2.23355 7.59136 2.07736 7.63736L1.67861 7.75486C-0.558887 8.41361 -0.558887 11.5861 1.67861 12.2449L2.07736 12.3624C2.23355 12.4084 2.37747 12.4887 2.49856 12.5976C2.61965 12.7064 2.71485 12.841 2.77718 12.9914C2.83951 13.1419 2.86738 13.3043 2.85876 13.4669C2.85014 13.6295 2.80524 13.7881 2.72736 13.9311L2.52736 14.2961C1.41236 16.3461 3.65361 18.5886 5.70361 17.4711L6.06861 17.2724C6.2116 17.1945 6.37021 17.1496 6.53281 17.141C6.6954 17.1323 6.85787 17.1602 7.00829 17.2225C7.15871 17.2849 7.29328 17.3801 7.40213 17.5012C7.51099 17.6223 7.59136 17.7662 7.63736 17.9224L7.75486 18.3211C8.41361 20.5586 11.5861 20.5586 12.2449 18.3211L12.3624 17.9224C12.4084 17.7662 12.4887 17.6223 12.5976 17.5012C12.7064 17.3801 12.841 17.2849 12.9914 17.2225C13.1419 17.1602 13.3043 17.1323 13.4669 17.141C13.6295 17.1496 13.7881 17.1945 13.9311 17.2724L14.2961 17.4724C16.3461 18.5886 18.5886 16.3449 17.4711 14.2961L17.2724 13.9311C17.1945 13.7881 17.1496 13.6295 17.141 13.4669C17.1323 13.3043 17.1602 13.1419 17.2225 12.9914C17.2849 12.841 17.3801 12.7064 17.5012 12.5976C17.6223 12.4887 17.7662 12.4084 17.9224 12.3624L18.3211 12.2449C20.5586 11.5861 20.5586 8.41361 18.3211 7.75486L17.9224 7.63736C17.7662 7.59136 17.6223 7.51099 17.5012 7.40213C17.3801 7.29328 17.2849 7.15871 17.2225 7.00829C17.1602 6.85787 17.1323 6.6954 17.141 6.53281C17.1496 6.37021 17.1945 6.2116 17.2724 6.06861L17.4724 5.70361C18.5886 3.65361 16.3449 1.41236 14.2961 2.52861L13.9311 2.72736C13.7881 2.80524 13.6295 2.85014 13.4669 2.85876C13.3043 2.86738 13.1419 2.83951 12.9914 2.77718C12.841 2.71485 12.7064 2.61965 12.5976 2.49856C12.4887 2.37747 12.4084 2.23355 12.3624 2.07736L12.2449 1.67861ZM8.95361 2.03236C9.26111 0.988613 10.7386 0.988613 11.0461 2.03236L11.1636 2.43111C11.2624 2.76622 11.4349 3.07497 11.6685 3.33474C11.9021 3.5945 12.1909 3.79869 12.5137 3.93234C12.8365 4.06598 13.1851 4.1257 13.534 4.1071C13.8828 4.0885 14.2231 3.99207 14.5299 3.82486L14.8936 3.62486C15.8486 3.10611 16.8936 4.14986 16.3736 5.10611L16.1749 5.47111C16.0079 5.7779 15.9117 6.11815 15.8933 6.46693C15.8749 6.81572 15.9348 7.1642 16.0686 7.48684C16.2023 7.80949 16.4066 8.09812 16.6663 8.33158C16.9261 8.56505 17.2348 8.73744 17.5699 8.83611L17.9674 8.95361C19.0111 9.26111 19.0111 10.7386 17.9674 11.0461L17.5686 11.1636C17.2335 11.2624 16.9248 11.4349 16.665 11.6685C16.4052 11.9021 16.201 12.1909 16.0674 12.5137C15.9337 12.8365 15.874 13.1851 15.8926 13.534C15.9112 13.8828 16.0077 14.2231 16.1749 14.5299L16.3749 14.8936C16.8936 15.8486 15.8499 16.8936 14.8936 16.3736L14.5299 16.1749C14.223 16.0077 13.8827 15.9113 13.5337 15.8928C13.1848 15.8743 12.8361 15.9341 12.5133 16.0678C12.1905 16.2016 11.9018 16.406 11.6682 16.6659C11.4347 16.9258 11.2622 17.2346 11.1636 17.5699L11.0461 17.9674C10.7386 19.0111 9.26111 19.0111 8.95361 17.9674L8.83611 17.5686C8.73729 17.2337 8.5648 16.9251 8.33128 16.6655C8.09775 16.4058 7.8091 16.2017 7.48647 16.0681C7.16385 15.9345 6.81542 15.8747 6.4667 15.8932C6.11798 15.9116 5.77781 16.0079 5.47111 16.1749L5.10611 16.3749C4.15111 16.8936 3.10611 15.8499 3.62611 14.8936L3.82486 14.5299C3.9923 14.2231 4.08893 13.8827 4.10765 13.5337C4.12637 13.1846 4.06671 12.8359 3.93304 12.5129C3.79938 12.19 3.59511 11.901 3.33521 11.6673C3.07532 11.4336 2.76639 11.2611 2.43111 11.1624L2.03236 11.0449C0.988613 10.7374 0.988613 9.25986 2.03236 8.95236L2.43111 8.83486C2.76587 8.736 3.07429 8.56354 3.33379 8.3301C3.59329 8.09666 3.79732 7.80815 3.93093 7.48568C4.06454 7.16322 4.12436 6.81496 4.10601 6.46639C4.08766 6.11782 3.9916 5.77777 3.82486 5.47111L3.62486 5.10611C3.10611 4.15111 4.14986 3.10611 5.10611 3.62611L5.47111 3.82486C5.77781 3.99183 6.11798 4.08808 6.4667 4.10655C6.81542 4.12503 7.16385 4.06526 7.48647 3.93163C7.8091 3.79801 8.09775 3.5939 8.33128 3.33426C8.5648 3.07463 8.73729 2.76605 8.83611 2.43111L8.95361 2.03236Z" fill="#92929D"/>
</g>
<defs>
<clipPath id="clip0_126_895">
<rect width="20" height="20" fill="white"/>
</clipPath>
</defs>
</svg>
