<svg width="20" height="20" viewBox="0 0 20 20" fill="none" xmlns="http://www.w3.org/2000/svg">
<g clip-path="url(#clip0_224_55)">
<path d="M14.6774 12.93C15.8878 11.2784 16.4299 9.23062 16.1953 7.19644C15.9607 5.16226 14.9667 3.29168 13.4121 1.95892C11.8575 0.626155 9.85709 -0.070492 7.81095 0.00834944C5.76481 0.0871909 3.82388 0.935706 2.37649 2.38414C0.929091 3.83257 0.0819647 5.7741 0.00458746 7.8203C-0.0727898 9.86649 0.625288 11.8665 1.95916 13.4201C3.29303 14.9737 5.16433 15.9663 7.19868 16.1995C9.23302 16.4326 11.2804 15.8891 12.9312 14.6775H12.9299C12.9674 14.7275 13.0074 14.775 13.0524 14.8213L17.8649 19.6338C18.0993 19.8683 18.4172 20.0001 18.7488 20.0003C19.0804 20.0004 19.3985 19.8688 19.633 19.6344C19.8676 19.4 19.9994 19.082 19.9995 18.7504C19.9996 18.4189 19.868 18.1008 19.6337 17.8663L14.8212 13.0538C14.7765 13.0085 14.7284 12.968 14.6774 12.93ZM14.9999 8.125C14.9999 9.02784 14.8221 9.92184 14.4766 10.756C14.1311 11.5901 13.6247 12.348 12.9863 12.9864C12.3479 13.6248 11.59 14.1312 10.7558 14.4767C9.92174 14.8222 9.02774 15 8.1249 15C7.22206 15 6.32807 14.8222 5.49395 14.4767C4.65984 14.1312 3.90195 13.6248 3.26354 12.9864C2.62514 12.348 2.11873 11.5901 1.77323 10.756C1.42773 9.92184 1.2499 9.02784 1.2499 8.125C1.2499 6.30164 1.97423 4.55296 3.26354 3.26364C4.55286 1.97433 6.30154 1.25 8.1249 1.25C9.94827 1.25 11.6969 1.97433 12.9863 3.26364C14.2756 4.55296 14.9999 6.30164 14.9999 8.125Z" fill="#92929D"/>
</g>
<defs>
<clipPath id="clip0_224_55">
<rect width="20" height="20" fill="white"/>
</clipPath>
</defs>
</svg>
