<svg width="20" height="20" viewBox="0 0 20 20" fill="none" xmlns="http://www.w3.org/2000/svg">
<path d="M2.68231 3.5675C2.6242 3.50939 2.57811 3.4404 2.54666 3.36448C2.51521 3.28855 2.49902 3.20718 2.49902 3.125C2.49902 3.04282 2.51521 2.96144 2.54666 2.88552C2.57811 2.80959 2.6242 2.74061 2.68231 2.6825C2.74042 2.62439 2.80941 2.57829 2.88533 2.54684C2.96126 2.51539 3.04263 2.49921 3.12481 2.49921C3.20699 2.49921 3.28837 2.51539 3.36429 2.54684C3.44022 2.57829 3.5092 2.62439 3.56731 2.6825L9.99981 9.11625L16.4323 2.6825C16.4904 2.62439 16.5594 2.57829 16.6353 2.54684C16.7113 2.51539 16.7926 2.49921 16.8748 2.49921C16.957 2.49921 17.0384 2.51539 17.1143 2.54684C17.1902 2.57829 17.2592 2.62439 17.3173 2.6825C17.3754 2.74061 17.4215 2.80959 17.453 2.88552C17.4844 2.96144 17.5006 3.04282 17.5006 3.125C17.5006 3.20718 17.4844 3.28855 17.453 3.36448C17.4215 3.4404 17.3754 3.50939 17.3173 3.5675L10.8836 10L17.3173 16.4325C17.3754 16.4906 17.4215 16.5596 17.453 16.6355C17.4844 16.7114 17.5006 16.7928 17.5006 16.875C17.5006 16.9572 17.4844 17.0386 17.453 17.1145C17.4215 17.1904 17.3754 17.2594 17.3173 17.3175C17.2592 17.3756 17.1902 17.4217 17.1143 17.4531C17.0384 17.4846 16.957 17.5008 16.8748 17.5008C16.7926 17.5008 16.7113 17.4846 16.6353 17.4531C16.5594 17.4217 16.4904 17.3756 16.4323 17.3175L9.99981 10.8837L3.56731 17.3175C3.5092 17.3756 3.44022 17.4217 3.36429 17.4531C3.28837 17.4846 3.20699 17.5008 3.12481 17.5008C3.04263 17.5008 2.96126 17.4846 2.88533 17.4531C2.80941 17.4217 2.74042 17.3756 2.68231 17.3175C2.6242 17.2594 2.57811 17.1904 2.54666 17.1145C2.51521 17.0386 2.49902 16.9572 2.49902 16.875C2.49902 16.7928 2.51521 16.7114 2.54666 16.6355C2.57811 16.5596 2.6242 16.4906 2.68231 16.4325L9.11606 10L2.68231 3.5675Z" fill="#FC5A5A"/>
</svg>
