<svg width="20" height="20" viewBox="0 0 20 20" fill="none" xmlns="http://www.w3.org/2000/svg">
<path d="M3.12501 9.99999C3.12482 8.79308 3.44235 7.60739 4.04568 6.56211C4.64901 5.51683 5.51688 4.64879 6.56205 4.04526C7.60721 3.44172 8.79284 3.12396 9.99974 3.12391C11.2066 3.12386 12.3923 3.44153 13.4375 4.04499C13.581 4.12656 13.7509 4.14807 13.9102 4.10483C14.0695 4.06159 14.2052 3.9571 14.2877 3.81417C14.3702 3.67124 14.3928 3.50147 14.3507 3.34191C14.3085 3.18235 14.2049 3.04596 14.0625 2.96249C12.5136 2.06821 10.7129 1.71001 8.93962 1.94344C7.16637 2.17686 5.51969 2.98886 4.25495 4.25352C2.99022 5.51817 2.17811 7.1648 1.94457 8.93803C1.71104 10.7113 2.06912 12.512 2.96329 14.061C3.85747 15.61 5.23776 16.8206 6.89011 17.5052C8.54245 18.1898 10.3745 18.31 12.1022 17.8473C13.8298 17.3846 15.3565 16.3647 16.4455 14.9459C17.5344 13.527 18.1248 11.7885 18.125 9.99999C18.125 9.83423 18.0592 9.67526 17.942 9.55805C17.8247 9.44084 17.6658 9.37499 17.5 9.37499C17.3343 9.37499 17.1753 9.44084 17.0581 9.55805C16.9409 9.67526 16.875 9.83423 16.875 9.99999C16.875 11.8234 16.1507 13.572 14.8614 14.8613C13.5721 16.1507 11.8234 16.875 10 16.875C8.17665 16.875 6.42796 16.1507 5.13865 14.8613C3.84934 13.572 3.12501 11.8234 3.12501 9.99999Z" fill="#FAFAFB"/>
<path d="M19.1923 4.1925C19.2504 4.13439 19.2965 4.0654 19.328 3.98948C19.3594 3.91355 19.3756 3.83218 19.3756 3.75C19.3756 3.66782 19.3594 3.58644 19.328 3.51052C19.2965 3.43459 19.2504 3.36561 19.1923 3.3075C19.1342 3.24939 19.0652 3.20329 18.9893 3.17184C18.9134 3.14039 18.832 3.12421 18.7498 3.12421C18.6676 3.12421 18.5863 3.14039 18.5103 3.17184C18.4344 3.20329 18.3654 3.24939 18.3073 3.3075L9.99981 11.6162L6.69231 8.3075C6.6342 8.24939 6.56522 8.20329 6.48929 8.17184C6.41337 8.14039 6.33199 8.12421 6.24981 8.12421C6.16763 8.12421 6.08626 8.14039 6.01033 8.17184C5.93441 8.20329 5.86542 8.24939 5.80731 8.3075C5.7492 8.36561 5.70311 8.43459 5.67166 8.51052C5.64021 8.58644 5.62402 8.66782 5.62402 8.75C5.62402 8.83218 5.64021 8.91355 5.67166 8.98948C5.70311 9.0654 5.7492 9.13439 5.80731 9.1925L9.55731 12.9425C9.61537 13.0007 9.68434 13.0469 9.76027 13.0784C9.8362 13.1099 9.9176 13.1261 9.99981 13.1261C10.082 13.1261 10.1634 13.1099 10.2394 13.0784C10.3153 13.0469 10.3843 13.0007 10.4423 12.9425L19.1923 4.1925Z" fill="#FAFAFB"/>
</svg>
