<svg width="16" height="16" viewBox="0 0 16 16" fill="none" xmlns="http://www.w3.org/2000/svg">
<path d="M2.14614 2.85399C2.09966 2.8075 2.06278 2.75231 2.03762 2.69157C2.01246 2.63083 1.99951 2.56573 1.99951 2.49999C1.99951 2.43425 2.01246 2.36915 2.03762 2.30841C2.06278 2.24767 2.09966 2.19248 2.14614 2.14599C2.19263 2.0995 2.24782 2.06263 2.30856 2.03747C2.3693 2.01231 2.4344 1.99936 2.50014 1.99936C2.56589 1.99936 2.63099 2.01231 2.69173 2.03747C2.75247 2.06263 2.80766 2.0995 2.85414 2.14599L8.00014 7.29299L13.1461 2.14599C13.1926 2.0995 13.2478 2.06263 13.3086 2.03747C13.3693 2.01231 13.4344 1.99936 13.5001 1.99936C13.5659 1.99936 13.631 2.01231 13.6917 2.03747C13.7525 2.06263 13.8077 2.0995 13.8541 2.14599C13.9006 2.19248 13.9375 2.24767 13.9627 2.30841C13.9878 2.36915 14.0008 2.43425 14.0008 2.49999C14.0008 2.56573 13.9878 2.63083 13.9627 2.69157C13.9375 2.75231 13.9006 2.8075 13.8541 2.85399L8.70714 7.99999L13.8541 13.146C13.9006 13.1925 13.9375 13.2477 13.9627 13.3084C13.9878 13.3691 14.0008 13.4342 14.0008 13.5C14.0008 13.5657 13.9878 13.6308 13.9627 13.6916C13.9375 13.7523 13.9006 13.8075 13.8541 13.854C13.8077 13.9005 13.7525 13.9374 13.6917 13.9625C13.631 13.9877 13.5659 14.0006 13.5001 14.0006C13.4344 14.0006 13.3693 13.9877 13.3086 13.9625C13.2478 13.9374 13.1926 13.9005 13.1461 13.854L8.00014 8.70699L2.85414 13.854C2.80766 13.9005 2.75247 13.9374 2.69173 13.9625C2.63099 13.9877 2.56589 14.0006 2.50014 14.0006C2.4344 14.0006 2.3693 13.9877 2.30856 13.9625C2.24782 13.9374 2.19263 13.9005 2.14614 13.854C2.09966 13.8075 2.06278 13.7523 2.03762 13.6916C2.01246 13.6308 1.99951 13.5657 1.99951 13.5C1.99951 13.4342 2.01246 13.3691 2.03762 13.3084C2.06278 13.2477 2.09966 13.1925 2.14614 13.146L7.29314 7.99999L2.14614 2.85399Z" fill="#FAFAFB"/>
</svg>
