<svg width="20" height="20" viewBox="0 0 20 20" fill="none" xmlns="http://www.w3.org/2000/svg">
<g clip-path="url(#clip0_46_1225)">
<path d="M5.675 0.1825C5.79213 0.0656638 5.95081 3.51487e-05 6.11625 0L13.8838 0C14.0492 3.51487e-05 14.2079 0.0656638 14.325 0.1825L19.8175 5.675C19.9343 5.79213 20 5.95081 20 6.11625V13.8838C20 14.0492 19.9343 14.2079 19.8175 14.325L14.325 19.8175C14.2079 19.9343 14.0492 20 13.8838 20H6.11625C5.95081 20 5.79213 19.9343 5.675 19.8175L0.1825 14.325C0.0656638 14.2079 3.51487e-05 14.0492 0 13.8838L0 6.11625C3.51487e-05 5.95081 0.0656638 5.79213 0.1825 5.675L5.675 0.1825ZM6.375 1.25L1.25 6.375V13.625L6.375 18.75H13.625L18.75 13.625V6.375L13.625 1.25H6.375Z" fill="#FAFAFB"/>
<path d="M5.80764 5.80749C5.8657 5.74928 5.93467 5.7031 6.0106 5.6716C6.08653 5.64009 6.16793 5.62387 6.25014 5.62387C6.33235 5.62387 6.41375 5.64009 6.48968 5.6716C6.56561 5.7031 6.63458 5.74928 6.69264 5.80749L10.0001 9.11624L13.3076 5.80749C13.3658 5.74938 13.4347 5.70328 13.5107 5.67183C13.5866 5.64038 13.668 5.6242 13.7501 5.6242C13.8323 5.6242 13.9137 5.64038 13.9896 5.67183C14.0655 5.70328 14.1345 5.74938 14.1926 5.80749C14.2508 5.8656 14.2968 5.93458 14.3283 6.01051C14.3597 6.08643 14.3759 6.16781 14.3759 6.24999C14.3759 6.33217 14.3597 6.41354 14.3283 6.48947C14.2968 6.56539 14.2508 6.63438 14.1926 6.69249L10.8839 9.99999L14.1926 13.3075C14.2508 13.3656 14.2968 13.4346 14.3283 13.5105C14.3597 13.5864 14.3759 13.6678 14.3759 13.75C14.3759 13.8322 14.3597 13.9135 14.3283 13.9895C14.2968 14.0654 14.2508 14.1344 14.1926 14.1925C14.1345 14.2506 14.0655 14.2967 13.9896 14.3281C13.9137 14.3596 13.8323 14.3758 13.7501 14.3758C13.668 14.3758 13.5866 14.3596 13.5107 14.3281C13.4347 14.2967 13.3658 14.2506 13.3076 14.1925L10.0001 10.8837L6.69264 14.1925C6.63453 14.2506 6.56554 14.2967 6.48962 14.3281C6.4137 14.3596 6.33232 14.3758 6.25014 14.3758C6.16796 14.3758 6.08659 14.3596 6.01066 14.3281C5.93474 14.2967 5.86575 14.2506 5.80764 14.1925C5.74953 14.1344 5.70343 14.0654 5.67199 13.9895C5.64054 13.9135 5.62435 13.8322 5.62435 13.75C5.62435 13.6678 5.64054 13.5864 5.67199 13.5105C5.70343 13.4346 5.74953 13.3656 5.80764 13.3075L9.11639 9.99999L5.80764 6.69249C5.74944 6.63443 5.70326 6.56546 5.67175 6.48953C5.64024 6.4136 5.62402 6.3322 5.62402 6.24999C5.62402 6.16778 5.64024 6.08638 5.67175 6.01045C5.70326 5.93451 5.74944 5.86554 5.80764 5.80749Z" fill="#FAFAFB"/>
</g>
<defs>
<clipPath id="clip0_46_1225">
<rect width="20" height="20" fill="white"/>
</clipPath>
</defs>
</svg>
