<svg width="20" height="20" viewBox="0 0 20 20" fill="none" xmlns="http://www.w3.org/2000/svg">
<g clip-path="url(#clip0_126_471)">
<path d="M3.875 0.875C3.93322 0.797377 4.00871 0.734375 4.09549 0.690983C4.18228 0.647591 4.27797 0.625 4.375 0.625H15.625C15.722 0.625 15.8177 0.647591 15.9045 0.690983C15.9913 0.734375 16.0668 0.797377 16.125 0.875L19.845 5.8425C20.0312 6.07375 20.04 6.405 19.8575 6.6475L10.5 19.125C10.4418 19.2026 10.3663 19.2656 10.2795 19.309C10.1927 19.3524 10.097 19.375 10 19.375C9.90297 19.375 9.80728 19.3524 9.72049 19.309C9.63371 19.2656 9.55822 19.2026 9.5 19.125L0.125 6.625C0.0438612 6.51682 0 6.38523 0 6.25C0 6.11477 0.0438612 5.98318 0.125 5.875L3.875 0.875ZM18.1075 5.60625L15.85 2.59375L14.88 5.61L18.1075 5.60625ZM13.5662 5.61125L14.7675 1.875H5.2325L6.43625 5.61875L13.5662 5.61125ZM6.8375 6.86875L10 16.7075L13.165 6.8625L6.8375 6.86875ZM5.12375 5.62L4.14875 2.5925L1.87625 5.62375L5.12375 5.62ZM1.87375 6.875L8.265 15.3963L5.525 6.87125L1.875 6.875H1.87375ZM11.735 15.3963L18.1388 6.85875L14.4788 6.86125L11.735 15.3963Z" fill="#FAFAFB"/>
</g>
<defs>
<clipPath id="clip0_126_471">
<rect width="20" height="20" fill="white"/>
</clipPath>
</defs>
</svg>
