<svg width="20" height="20" viewBox="0 0 20 20" fill="none" xmlns="http://www.w3.org/2000/svg">
<g clip-path="url(#clip0_46_1233)">
<path d="M9.92262 2.52C9.94712 2.50657 9.97467 2.49968 10.0026 2.5C10.0301 2.49989 10.0572 2.50677 10.0814 2.52C10.1099 2.53714 10.1333 2.56178 10.1489 2.59125L18.7201 17.175C18.7651 17.25 18.7639 17.33 18.7226 17.4038C18.7068 17.434 18.6835 17.4598 18.6551 17.4788C18.6304 17.4939 18.6016 17.5013 18.5726 17.5H1.43262C1.4036 17.5014 1.37484 17.494 1.35012 17.4788C1.32168 17.4598 1.29847 17.434 1.28262 17.4038C1.26202 17.3691 1.25135 17.3294 1.25179 17.289C1.25224 17.2487 1.26376 17.2092 1.28512 17.175L9.85512 2.59125C9.87074 2.56182 9.89407 2.53719 9.92262 2.52ZM11.2276 1.9575C11.1039 1.74196 10.9255 1.56288 10.7104 1.43834C10.4953 1.31381 10.2512 1.24823 10.0026 1.24823C9.75408 1.24823 9.50994 1.31381 9.29486 1.43834C9.07977 1.56288 8.90135 1.74196 8.77762 1.9575L0.206366 16.5413C-0.364884 17.5138 0.320115 18.75 1.43137 18.75H18.5726C19.6839 18.75 20.3701 17.5125 19.7976 16.5413L11.2276 1.9575Z" fill="#FAFAFB"/>
<path d="M8.75244 15C8.75244 14.8359 8.78477 14.6733 8.84759 14.5217C8.91041 14.37 9.00248 14.2322 9.11856 14.1161C9.23463 14.0001 9.37243 13.908 9.52409 13.8452C9.67574 13.7824 9.83829 13.75 10.0024 13.75C10.1666 13.75 10.3291 13.7824 10.4808 13.8452C10.6325 13.908 10.7703 14.0001 10.8863 14.1161C11.0024 14.2322 11.0945 14.37 11.1573 14.5217C11.2201 14.6733 11.2524 14.8359 11.2524 15C11.2524 15.3315 11.1207 15.6495 10.8863 15.8839C10.6519 16.1183 10.334 16.25 10.0024 16.25C9.67092 16.25 9.35298 16.1183 9.11856 15.8839C8.88414 15.6495 8.75244 15.3315 8.75244 15ZM8.87494 7.49377C8.8583 7.33608 8.87499 7.17664 8.92394 7.02581C8.97289 6.87498 9.05301 6.73613 9.15909 6.61826C9.26517 6.50039 9.39485 6.40614 9.53971 6.34163C9.68456 6.27711 9.84137 6.24377 9.99994 6.24377C10.1585 6.24377 10.3153 6.27711 10.4602 6.34163C10.605 6.40614 10.7347 6.50039 10.8408 6.61826C10.9469 6.73613 11.027 6.87498 11.0759 7.02581C11.1249 7.17664 11.1416 7.33608 11.1249 7.49377L10.6874 11.8775C10.6727 12.0497 10.5939 12.2102 10.4666 12.3271C10.3393 12.444 10.1728 12.5088 9.99994 12.5088C9.8271 12.5088 9.66055 12.444 9.53325 12.3271C9.40594 12.2102 9.32714 12.0497 9.31244 11.8775L8.87494 7.49377Z" fill="#FAFAFB"/>
</g>
<defs>
<clipPath id="clip0_46_1233">
<rect width="20" height="20" fill="white"/>
</clipPath>
</defs>
</svg>
