<svg width="12" height="12" viewBox="0 0 12 12" fill="none" xmlns="http://www.w3.org/2000/svg">
<path fill-rule="evenodd" clip-rule="evenodd" d="M1.23444 3.4845C1.26927 3.44958 1.31065 3.42187 1.35621 3.40296C1.40177 3.38406 1.45061 3.37433 1.49994 3.37433C1.54926 3.37433 1.5981 3.38406 1.64366 3.40296C1.68922 3.42187 1.7306 3.44958 1.76544 3.4845L5.99994 7.71975L10.2344 3.4845C10.2693 3.44963 10.3107 3.42198 10.3562 3.40311C10.4018 3.38424 10.4506 3.37452 10.4999 3.37452C10.5492 3.37452 10.5981 3.38424 10.6436 3.40311C10.6892 3.42198 10.7306 3.44963 10.7654 3.4845C10.8003 3.51936 10.828 3.56076 10.8468 3.60631C10.8657 3.65187 10.8754 3.70069 10.8754 3.75C10.8754 3.79931 10.8657 3.84813 10.8468 3.89369C10.828 3.93924 10.8003 3.98063 10.7654 4.0155L6.26544 8.5155C6.2306 8.55042 6.18922 8.57813 6.14366 8.59703C6.0981 8.61594 6.04926 8.62567 5.99994 8.62567C5.95061 8.62567 5.90177 8.61594 5.85621 8.59703C5.81065 8.57813 5.76927 8.55042 5.73444 8.5155L1.23444 4.0155C1.19952 3.98066 1.17181 3.93928 1.1529 3.89372C1.134 3.84817 1.12427 3.79932 1.12427 3.75C1.12427 3.70067 1.134 3.65183 1.1529 3.60627C1.17181 3.56071 1.19952 3.51933 1.23444 3.4845Z" fill="#FAFAFB"/>
</svg>
