<svg width="12" height="12" viewBox="0 0 12 12" fill="none" xmlns="http://www.w3.org/2000/svg">
<path fill-rule="evenodd" clip-rule="evenodd" d="M5.73449 3.4845C5.76932 3.44958 5.8107 3.42187 5.85626 3.40296C5.90182 3.38406 5.95066 3.37433 5.99999 3.37433C6.04931 3.37433 6.09815 3.38406 6.14371 3.40296C6.18927 3.42187 6.23065 3.44958 6.26549 3.4845L10.7655 7.9845C10.8359 8.05491 10.8755 8.15042 10.8755 8.25C10.8755 8.34958 10.8359 8.44508 10.7655 8.5155C10.6951 8.58591 10.5996 8.62547 10.5 8.62547C10.4004 8.62547 10.3049 8.58591 10.2345 8.5155L5.99999 4.28025L1.76549 8.5155C1.69507 8.58591 1.59957 8.62547 1.49999 8.62547C1.4004 8.62547 1.3049 8.58591 1.23449 8.5155C1.16407 8.44508 1.12451 8.34958 1.12451 8.25C1.12451 8.15042 1.16407 8.05491 1.23449 7.9845L5.73449 3.4845Z" fill="#FAFAFB"/>
</svg>
