<svg xmlns="http://www.w3.org/2000/svg" aria-hidden="true" style="position:absolute;width:0;height:0;overflow:hidden">
  <defs>
    <symbol id="icon-close" viewBox="0 0 32 32">
      <path d="M4.292 5.708A.991.991 0 0 1 3.999 5a1.006 1.006 0 0 1 .618-.925 1.01 1.01 0 0 1 .766 0c.121.05.232.124.325.217L16 14.586 26.292 4.292A.991.991 0 0 1 27 3.999a1.002 1.002 0 0 1 .708 1.709L17.414 16l10.294 10.292a.991.991 0 0 1 .293.708 1.006 1.006 0 0 1-.618.925 1.01 1.01 0 0 1-.766 0 1.002 1.002 0 0 1-.325-.217L16 17.414 5.708 27.708a.991.991 0 0 1-.708.293 1.006 1.006 0 0 1-.925-.618 1.01 1.01 0 0 1 0-.766c.05-.121.124-.232.217-.325L14.586 16 4.292 5.708z"/>
    </symbol>
    <symbol id="icon-primary" viewBox="0 0 32 32">
      <path d="M6.2 1.4A.995.995 0 0 1 7 1h18a.993.993 0 0 1 .8.4l5.952 7.948c.298.37.312.9.02 1.288L16.8 30.6a.995.995 0 0 1-.8.4.993.993 0 0 1-.8-.4l-15-20a1 1 0 0 1 0-1.2l6-8zm22.772 7.57L25.36 4.15l-1.552 4.826 5.164-.006zm-7.266.008L23.628 3H8.372l1.926 5.99 11.408-.012zM10.94 10.99 16 26.732l5.064-15.752-10.124.01zM8.198 8.992l-1.56-4.844-3.636 4.85 5.196-.006zM2.998 11l10.226 13.634-4.384-13.64L2.998 11zm15.778 13.634 10.246-13.66-5.856.004-4.39 13.656z"/>
    </symbol>
    <symbol id="icon-check" viewBox="0 0 32 32">
      <path d="M5 16a10.998 10.998 0 0 1 16.499-9.528 1.003 1.003 0 0 0 1.36-.369 1.003 1.003 0 0 0-.36-1.363A12.995 12.995 0 0 0 6.807 6.806 13.005 13.005 0 0 0 4.74 22.498a13.001 13.001 0 0 0 21.571 1.416 13 13 0 0 0 2.687-7.913.997.997 0 0 0-1-1 .997.997 0 0 0-1 1 11 11 0 0 1-22 0z"/>
      <path d="M30.708 6.708A.991.991 0 0 0 31.001 6a1.006 1.006 0 0 0-.618-.925 1.006 1.006 0 0 0-1.091.217L16 18.586l-5.292-5.294a.991.991 0 0 0-.708-.293 1.002 1.002 0 0 0-.708 1.709l6 6a.991.991 0 0 0 .708.293 1.002 1.002 0 0 0 .708-.293l14-14z"/>
    </symbol>
    <symbol id="icon-danger" viewBox="0 0 32 32">
      <path d="M9.08.292A.998.998 0 0 1 9.786 0h12.428c.265 0 .519.105.706.292l8.788 8.788a.998.998 0 0 1 .292.706v12.428a.998.998 0 0 1-.292.706l-8.788 8.788a.998.998 0 0 1-.706.292H9.786a.998.998 0 0 1-.706-.292L.292 22.92A.998.998 0 0 1 0 22.214V9.786c0-.265.105-.519.292-.706L9.08.292zM10.2 2 2 10.2v11.6l8.2 8.2h11.6l8.2-8.2V10.2L21.8 2H10.2z"/>
      <path d="M9.292 9.292A.991.991 0 0 1 10 8.999a1.002 1.002 0 0 1 .708.293L16 14.586l5.292-5.294A.991.991 0 0 1 22 8.999a1.002 1.002 0 0 1 .708 1.709L17.414 16l5.294 5.292a.991.991 0 0 1 .293.708 1.006 1.006 0 0 1-.618.925 1.006 1.006 0 0 1-1.091-.217L16 17.414l-5.292 5.294a.991.991 0 0 1-.708.293 1.006 1.006 0 0 1-.925-.618 1.01 1.01 0 0 1 0-.766c.05-.121.124-.232.217-.325L14.586 16l-5.294-5.292A.991.991 0 0 1 8.999 10a1.002 1.002 0 0 1 .293-.708z"/>
    </symbol>
    <symbol id="icon-warning" viewBox="0 0 32 32">
      <path d="M15.876 4.032c.039-.021.083-.033.128-.032s.087.011.126.032a.289.289 0 0 1 .108.114L29.952 27.48a.35.35 0 0 1 .004.366.328.328 0 0 1-.108.12.237.237 0 0 1-.132.034H2.292a.237.237 0 0 1-.132-.034.32.32 0 0 1-.108-.12.35.35 0 0 1 .004-.366L15.768 4.146a.289.289 0 0 1 .108-.114zm2.088-.9a2.26 2.26 0 0 0-3.92 0L.33 26.466C-.584 28.022.512 30 2.29 30h27.426c1.778 0 2.876-1.98 1.96-3.534L17.964 3.132z"/>
      <path d="M14.004 24a2.004 2.004 0 0 1 .586-1.414 1.986 1.986 0 0 1 1.414-.585 2.004 2.004 0 0 1 1.848 1.234 2 2 0 1 1-3.848.765zm.196-12.01a1.812 1.812 0 0 1 1.799-2.001c.254 0 .505.053.736.157s.439.254.609.443.298.411.376.652c.078.241.105.496.078.749l-.7 7.014a1.107 1.107 0 0 1-1.1 1.01 1.105 1.105 0 0 1-1.1-1.01l-.7-7.014z"/>
    </symbol>
    <symbol id="icon-info" viewBox="0 0 32 32">
      <path d="M16 30a14 14 0 1 1 0-28 14 14 0 0 1 0 28zm0 2a16.003 16.003 0 0 0 16-16A15.997 15.997 0 0 0 16 0 15.997 15.997 0 0 0 0 16a16.003 16.003 0 0 0 16 16z"/>
      <path d="m17.86 13.176-4.58.574-.164.76.9.166c.588.14.704.352.576.938l-1.476 6.936c-.388 1.794.21 2.638 1.616 2.638 1.09 0 2.356-.504 2.93-1.196l.176-.832c-.4.352-.984.492-1.372.492-.55 0-.75-.386-.608-1.066l2.002-9.41zM18 9a2 2 0 1 1-4.001-.001A2 2 0 0 1 18 9z"/>
    </symbol>
  </defs>
</svg>
