<svg xmlns="http://www.w3.org/2000/svg" aria-hidden="true" style="position:absolute;width:0;height:0;overflow:hidden">
  <defs>
    <!-- Alerts icons -->
    <symbol id="icon-logo" fill="none" viewBox="0 0 24 24">
      <path fill="#1C1C24" d="M1.916 8.02s-.355-6.61 1.081-6.94C4.433.75 6.91 3.121 6.91 3.121l-4.994 4.9ZM15.482 3.282s2.651-2.64 4.53-2.2c1.878.44.443 5.658.443 5.658l-4.973-3.458Z"/>
      <path fill="#F07F2E" stroke="#1C1C24" stroke-miterlimit="10" stroke-width=".4" d="M20.668 20.107c-1.99 1.572-3.32 2.086-5.583 2.698-1.51.409-5.312.388-8.856-1.038-2.482-1.086-3.455-2.267-3.923-2.91-.408-.56-1.238-1.802-1.285-3.16-.07-1.978-.011-3.908.897-7.674.907-3.768 4.994-4.9 4.994-4.9 4.465-1.053 8.172-.225 9.459 0 1.286.227 4.942 2.541 5.256 7.18.048.693.825 3.16.9 5.232.022.635.04 1.481-.276 2.35-.365 1-1.18 1.884-1.583 2.221Z"/>
      <path fill="#1C1C24" d="M8.362 10.748a1.74 1.74 0 0 1 .106-.173l.056-.08.033-.043a2.343 2.343 0 0 1 .263-.272c.011-.01.07-.059.024-.022-.047.036.021-.014.036-.025a1.1 1.1 0 0 1 .118-.07l.062-.031c.041-.021-.073.023.007-.001.045-.014.09-.025.134-.035.06-.015-.076.002-.014.002.026 0 .053-.003.081-.002.025 0 .05.004.073.004.044 0-.071-.02-.03-.003.01.004.023.003.033.007l.076.02.033.013c.069.02-.04-.026-.006-.003.057.039.124.068.182.106a.648.648 0 0 1 .035.026c-.056-.043 0 0 .011.011.032.03.064.057.095.088.156.155.252.292.371.484.1.16.313.222.48.125a.353.353 0 0 0 .125-.477c-.375-.601-.944-1.21-1.722-1.074-.467.082-.833.45-1.1.816-.061.083-.12.169-.168.258a.355.355 0 0 0 .127.477c.157.09.39.04.479-.127ZM18.6 10.248a1.853 1.853 0 0 1 .156-.242.859.859 0 0 0 .03-.042c.026-.034-.058.072-.005.01a2.346 2.346 0 0 1 .257-.266c.011-.01.07-.057.022-.02-.048.038.018-.012.033-.021.036-.025.073-.048.112-.069l.058-.03c.041-.02-.077.025.004 0 .042-.012.085-.022.128-.033.059-.014-.078.004-.017.002.026 0 .051-.003.078-.002.024 0 .047.005.07.005.045 0-.073-.02-.032-.004.009.004.02.004.03.006l.072.02c.01.003.021.008.032.01.068.02-.042-.026-.01-.004.055.037.119.064.175.102a.765.765 0 0 1 .032.025c-.06-.046-.004-.003.007.008.03.028.062.054.091.083.154.153.235.272.355.461.099.16.313.223.479.126a.353.353 0 0 0 .126-.477c-.364-.582-.914-1.167-1.666-1.036-.453.08-.804.434-1.064.788-.058.08-.113.162-.16.248a.355.355 0 0 0 .126.477c.16.093.393.043.482-.125Z"/>
      <path stroke="#1C1C24" stroke-miterlimit="10" stroke-width=".4" d="m10.622 13.772-3.626-.117M10.682 15.016l-3.148.466M20.174 13.235l3.626-.117M20.115 14.475l3.148.464M14.987 14.635s1.754 2.418 3.238-.044M16.62 12.829v2.73"/>
      <path fill="#1C1C24" d="M16.588 12.952c.735 0 1.33-.418 1.33-.934 0-.515-.595-.933-1.33-.933-.734 0-1.33.418-1.33.933 0 .516.596.934 1.33.934Z"/>
      <path fill="#1C1C24" stroke="#1C1C24" stroke-miterlimit="10" stroke-width=".4" d="M4.94 11.631c1.18-1.216-2.59-3.768-2.867-3.877C2.06 7.749 1 12.524 1.055 15.4c.013.671.14 1.37.14 1.37.221.196.366.826 2.018.022.924-.45 1.107-1.368.265-1.544-1.618-.339.005-.7-.26-1.34-.67-1.615.482-.998 1.722-2.277ZM20.951 16.374c.137-1.43 1.48-1.026 1.48-1.026.446 2.61-1.116 4.383-2.242 5.004-.274 0-.536-1.596.079-1.8.614-.203.547-.748.683-2.178Z"/>
    </symbol>
    <symbol id="icon-close" viewBox="0 0 32 32">
      <path d="M4.292 5.708A.991.991 0 0 1 3.999 5a1.006 1.006 0 0 1 .618-.925 1.01 1.01 0 0 1 .766 0c.121.05.232.124.325.217L16 14.586 26.292 4.292A.991.991 0 0 1 27 3.999a1.002 1.002 0 0 1 .708 1.709L17.414 16l10.294 10.292a.991.991 0 0 1 .293.708 1.006 1.006 0 0 1-.618.925 1.01 1.01 0 0 1-.766 0 1.002 1.002 0 0 1-.325-.217L16 17.414 5.708 27.708a.991.991 0 0 1-.708.293 1.006 1.006 0 0 1-.925-.618 1.01 1.01 0 0 1 0-.766c.05-.121.124-.232.217-.325L14.586 16 4.292 5.708z"/>
    </symbol>
    <symbol id="icon-primary" viewBox="0 0 32 32">
      <path d="M6.2 1.4A.995.995 0 0 1 7 1h18a.993.993 0 0 1 .8.4l5.952 7.948c.298.37.312.9.02 1.288L16.8 30.6a.995.995 0 0 1-.8.4.993.993 0 0 1-.8-.4l-15-20a1 1 0 0 1 0-1.2l6-8zm22.772 7.57L25.36 4.15l-1.552 4.826 5.164-.006zm-7.266.008L23.628 3H8.372l1.926 5.99 11.408-.012zM10.94 10.99 16 26.732l5.064-15.752-10.124.01zM8.198 8.992l-1.56-4.844-3.636 4.85 5.196-.006zM2.998 11l10.226 13.634-4.384-13.64L2.998 11zm15.778 13.634 10.246-13.66-5.856.004-4.39 13.656z"/>
    </symbol>
    <symbol id="icon-check" viewBox="0 0 32 32">
      <path d="M5 16a10.998 10.998 0 0 1 16.499-9.528 1.003 1.003 0 0 0 1.36-.369 1.003 1.003 0 0 0-.36-1.363A12.995 12.995 0 0 0 6.807 6.806 13.005 13.005 0 0 0 4.74 22.498a13.001 13.001 0 0 0 21.571 1.416 13 13 0 0 0 2.687-7.913.997.997 0 0 0-1-1 .997.997 0 0 0-1 1 11 11 0 0 1-22 0z"/>
      <path d="M30.708 6.708A.991.991 0 0 0 31.001 6a1.006 1.006 0 0 0-.618-.925 1.006 1.006 0 0 0-1.091.217L16 18.586l-5.292-5.294a.991.991 0 0 0-.708-.293 1.002 1.002 0 0 0-.708 1.709l6 6a.991.991 0 0 0 .708.293 1.002 1.002 0 0 0 .708-.293l14-14z"/>
    </symbol>
    <symbol id="icon-danger" viewBox="0 0 32 32">
      <path d="M9.08.292A.998.998 0 0 1 9.786 0h12.428c.265 0 .519.105.706.292l8.788 8.788a.998.998 0 0 1 .292.706v12.428a.998.998 0 0 1-.292.706l-8.788 8.788a.998.998 0 0 1-.706.292H9.786a.998.998 0 0 1-.706-.292L.292 22.92A.998.998 0 0 1 0 22.214V9.786c0-.265.105-.519.292-.706L9.08.292zM10.2 2 2 10.2v11.6l8.2 8.2h11.6l8.2-8.2V10.2L21.8 2H10.2z"/>
      <path d="M9.292 9.292A.991.991 0 0 1 10 8.999a1.002 1.002 0 0 1 .708.293L16 14.586l5.292-5.294A.991.991 0 0 1 22 8.999a1.002 1.002 0 0 1 .708 1.709L17.414 16l5.294 5.292a.991.991 0 0 1 .293.708 1.006 1.006 0 0 1-.618.925 1.006 1.006 0 0 1-1.091-.217L16 17.414l-5.292 5.294a.991.991 0 0 1-.708.293 1.006 1.006 0 0 1-.925-.618 1.01 1.01 0 0 1 0-.766c.05-.121.124-.232.217-.325L14.586 16l-5.294-5.292A.991.991 0 0 1 8.999 10a1.002 1.002 0 0 1 .293-.708z"/>
    </symbol>
    <symbol id="icon-warning" viewBox="0 0 32 32">
      <path d="M15.876 4.032c.039-.021.083-.033.128-.032s.087.011.126.032a.289.289 0 0 1 .108.114L29.952 27.48a.35.35 0 0 1 .004.366.328.328 0 0 1-.108.12.237.237 0 0 1-.132.034H2.292a.237.237 0 0 1-.132-.034.32.32 0 0 1-.108-.12.35.35 0 0 1 .004-.366L15.768 4.146a.289.289 0 0 1 .108-.114zm2.088-.9a2.26 2.26 0 0 0-3.92 0L.33 26.466C-.584 28.022.512 30 2.29 30h27.426c1.778 0 2.876-1.98 1.96-3.534L17.964 3.132z"/>
      <path d="M14.004 24a2.004 2.004 0 0 1 .586-1.414 1.986 1.986 0 0 1 1.414-.585 2.004 2.004 0 0 1 1.848 1.234 2 2 0 1 1-3.848.765zm.196-12.01a1.812 1.812 0 0 1 1.799-2.001c.254 0 .505.053.736.157s.439.254.609.443.298.411.376.652c.078.241.105.496.078.749l-.7 7.014a1.107 1.107 0 0 1-1.1 1.01 1.105 1.105 0 0 1-1.1-1.01l-.7-7.014z"/>
    </symbol>
    <symbol id="icon-info" viewBox="0 0 32 32">
      <path d="M16 30a14 14 0 1 1 0-28 14 14 0 0 1 0 28zm0 2a16.003 16.003 0 0 0 16-16A15.997 15.997 0 0 0 16 0 15.997 15.997 0 0 0 0 16a16.003 16.003 0 0 0 16 16z"/>
      <path d="m17.86 13.176-4.58.574-.164.76.9.166c.588.14.704.352.576.938l-1.476 6.936c-.388 1.794.21 2.638 1.616 2.638 1.09 0 2.356-.504 2.93-1.196l.176-.832c-.4.352-.984.492-1.372.492-.55 0-.75-.386-.608-1.066l2.002-9.41zM18 9a2 2 0 1 1-4.001-.001A2 2 0 0 1 18 9z"/>
    </symbol>
    <!-- Side menu icons -->
    <symbol id="menu-columns" viewBox="0 0 32 32">
      <path d="M12 2v6H2V2h10zM2 0a2 2 0 0 0-2 2v6a2 2 0 0 0 2 2h10a2 2 0 0 0 2-2V2a2 2 0 0 0-2-2H2zm28 24v6H20v-6h10zm-10-2a2 2 0 0 0-2 2v6a2 2 0 0 0 2 2h10a2 2 0 0 0 2-2v-6a2 2 0 0 0-2-2H20zm-8-6v14H2V16h10zM2 14a2 2 0 0 0-2 2v14a2 2 0 0 0 2 2h10a2 2 0 0 0 2-2V16a2 2 0 0 0-2-2H2zM30 2v14H20V2h10zM20 0a2 2 0 0 0-2 2v14a2 2 0 0 0 2 2h10a2 2 0 0 0 2-2V2a2 2 0 0 0-2-2H20z"/>
    </symbol>
    <symbol id="menu-person-plus" viewBox="0 0 32 32">
      <path d="M12 16a5.996 5.996 0 0 0 6-6A6.002 6.002 0 0 0 7.757 5.757 6 6 0 0 0 12 16zm4-6a4.003 4.003 0 0 1-4 4 4.003 4.003 0 0 1-4-4 4.003 4.003 0 0 1 4-4 4.003 4.003 0 0 1 4 4zm8 16c0 2-2 2-2 2H2s-2 0-2-2 2-8 12-8 12 6 12 8zm-2-.008c-.002-.492-.308-1.972-1.664-3.328C19.032 21.36 16.578 20 12 20c-4.58 0-7.032 1.36-8.336 2.664C2.308 24.02 2.004 25.5 2 25.992h20zM27 10a.997.997 0 0 1 1 1v3h3a.997.997 0 0 1 1 1 .997.997 0 0 1-1 1h-3v3a.997.997 0 0 1-1 1 .997.997 0 0 1-1-1v-3h-3a.997.997 0 0 1-1-1 .997.997 0 0 1 1-1h3v-3a.997.997 0 0 1 1-1z"/>
    </symbol>
    <symbol id="menu-briefcase" viewBox="0 0 32 32">
      <path d="M13 2a3.004 3.004 0 0 0-3 3v1H3a3.004 3.004 0 0 0-3 3v16a3.004 3.004 0 0 0 3 3h26a3.004 3.004 0 0 0 3-3V9a3.004 3.004 0 0 0-3-3h-7V5a3.004 3.004 0 0 0-3-3h-6zm0 2h6a.997.997 0 0 1 1 1v1h-8V5a.997.997 0 0 1 1-1zm3.772 13.828L30 14.302V25a.997.997 0 0 1-1 1H3a.997.997 0 0 1-1-1V14.3l13.228 3.528a2.994 2.994 0 0 0 1.544 0zM3 8h26a.997.997 0 0 1 1 1v3.232l-13.742 3.664a1.003 1.003 0 0 1-.516 0L2 12.232V9a.997.997 0 0 1 1-1z"/>
    </symbol>
    <symbol id="menu-coin" viewBox="0 0 32 32">
      <path d="M11 19.022c.152 1.908 1.66 3.394 4.364 3.57V24h1.2v-1.418c2.8-.196 4.436-1.692 4.436-3.864 0-1.974-1.252-2.992-3.49-3.52l-.946-.224V11.14c1.2.136 1.964.792 2.148 1.7h2.104c-.152-1.838-1.728-3.276-4.252-3.432V8h-1.2v1.438c-2.39.234-4.02 1.672-4.02 3.706 0 1.8 1.212 2.944 3.226 3.414l.794.196v4.068c-1.23-.186-2.044-.86-2.228-1.8H11zm4.354-4.332c-1.18-.274-1.82-.832-1.82-1.672 0-.94.69-1.644 1.83-1.85v3.52l-.01.002zm1.384 2.386c1.434.332 2.096.87 2.096 1.82 0 1.084-.824 1.828-2.27 1.964v-3.824l.174.04z"/>
      <path d="M16 30a14 14 0 1 1 0-28 14 14 0 0 1 0 28zm0 2a16.003 16.003 0 0 0 16-16A15.997 15.997 0 0 0 16 0 15.997 15.997 0 0 0 0 16a16.003 16.003 0 0 0 16 16z"/>
      <path d="M16 27a11 11 0 1 1 0-22 11 11 0 0 1 0 22zm0 1a12 12 0 1 0 .002-24.003A12 12 0 0 0 16 28.002z"/>
    </symbol>
    <symbol id="menu-clipboard" viewBox="0 0 32 32">
      <path d="M21.708 14.292a.991.991 0 0 1 .293.708 1.002 1.002 0 0 1-.293.708l-6 6a.991.991 0 0 1-.708.293 1.002 1.002 0 0 1-.708-.293l-3-3a.991.991 0 0 1-.293-.708 1.006 1.006 0 0 1 .293-.708 1 1 0 0 1 1.416 0L15 19.586l5.292-5.294a.991.991 0 0 1 .708-.293 1.006 1.006 0 0 1 .708.293z"/>
      <path d="M8 3H6a4.003 4.003 0 0 0-4 4v21a4.003 4.003 0 0 0 4 4h20a4.003 4.003 0 0 0 4-4V7a4.003 4.003 0 0 0-4-4h-2v2h2a2 2 0 0 1 2 2v21a2 2 0 0 1-2 2H6a2 2 0 0 1-2-2V7a2 2 0 0 1 2-2h2V3z"/>
      <path d="M19 2a.997.997 0 0 1 1 1v2a.997.997 0 0 1-1 1h-6a.997.997 0 0 1-1-1V3a.997.997 0 0 1 1-1h6zm-6-2a3.004 3.004 0 0 0-3 3v2a3.004 3.004 0 0 0 3 3h6a3.004 3.004 0 0 0 3-3V3a3.004 3.004 0 0 0-3-3h-6z"/>
    </symbol>
    <symbol id="menu-envelope" viewBox="0 0 32 32">
      <path d="M0 8a4.003 4.003 0 0 1 4-4h24a4.003 4.003 0 0 1 4 4v16a4.003 4.003 0 0 1-4 4H4a4.003 4.003 0 0 1-4-4V8zm4-2a2 2 0 0 0-2 2v.434l14 8.4 14-8.4V8a2 2 0 0 0-2-2H4zm26 4.766-9.416 5.65L30 22.21V10.766zm-.068 13.752-11.28-6.942L16 19.166l-2.652-1.59-11.28 6.94A2 2 0 0 0 4 26h24a2.003 2.003 0 0 0 1.932-1.482zM2 22.21l9.416-5.794L2 10.766V22.21z"/>
    </symbol>
    <symbol id="menu-calendar" viewBox="0 0 32 32">
      <path d="M7 0a.997.997 0 0 1 1 1v1h16V1a.997.997 0 0 1 1-1 .997.997 0 0 1 1 1v1h2a4.003 4.003 0 0 1 4 4v22a4.003 4.003 0 0 1-4 4H4a4.003 4.003 0 0 1-4-4V6a4.003 4.003 0 0 1 4-4h2V1a.997.997 0 0 1 1-1zM4 4a2 2 0 0 0-2 2v2h28V6a2 2 0 0 0-2-2H4zm26 6H2v18a2 2 0 0 0 2 2h24a2 2 0 0 0 2-2V10z"/>
      <path d="M18 15a.997.997 0 0 1 1-1h11v4H19a.997.997 0 0 1-1-1v-2zm-4 6v2a.997.997 0 0 1-1 1H2v-4h11a.997.997 0 0 1 1 1z"/>
    </symbol>
    <symbol id="menu-journal" viewBox="0 0 32 32">
      <path d="M10 21a.997.997 0 0 1 1-1h4a.997.997 0 0 1 1 1 .997.997 0 0 1-1 1h-4a.997.997 0 0 1-1-1zm0-4a.997.997 0 0 1 1-1h10a.997.997 0 0 1 1 1 .997.997 0 0 1-1 1H11a.997.997 0 0 1-1-1zm0-4a.997.997 0 0 1 1-1h10a.997.997 0 0 1 1 1 .997.997 0 0 1-1 1H11a.997.997 0 0 1-1-1zm0-4a.997.997 0 0 1 1-1h10a.997.997 0 0 1 1 1 .997.997 0 0 1-1 1H11a.997.997 0 0 1-1-1z"/>
      <path d="M6 0h20a4.003 4.003 0 0 1 4 4v24a4.003 4.003 0 0 1-4 4H6a4.003 4.003 0 0 1-4-4v-2h2v2a2 2 0 0 0 2 2h20a2 2 0 0 0 2-2V4a2 2 0 0 0-2-2H6a2 2 0 0 0-2 2v2H2V4a4.003 4.003 0 0 1 4-4z"/>
      <path d="M2 10V9a.997.997 0 0 1 1-1 .997.997 0 0 1 1 1v1h1a.997.997 0 0 1 1 1 .997.997 0 0 1-1 1H1a.997.997 0 0 1-1-1 .997.997 0 0 1 1-1h1zm0 6v-1a.997.997 0 0 1 1-1 .997.997 0 0 1 1 1v1h1a.997.997 0 0 1 1 1 .997.997 0 0 1-1 1H1a.997.997 0 0 1-1-1 .997.997 0 0 1 1-1h1zm0 6v-1a.997.997 0 0 1 1-1 .997.997 0 0 1 1 1v1h1a.997.997 0 0 1 1 1 .997.997 0 0 1-1 1H1a.997.997 0 0 1-1-1 .997.997 0 0 1 1-1h1z"/>
    </symbol>
    <!-- Additional icons -->
    <symbol id="icon-menu" viewBox="0 0 32 32">
      <path d="M4 25c0-0.265 0.105-0.52 0.293-0.707s0.442-0.293 0.707-0.293h22c0.265 0 0.52 0.105 0.707 0.293s0.293 0.442 0.293 0.707-0.105 0.52-0.293 0.707c-0.187 0.188-0.442 0.293-0.707 0.293h-22c-0.265 0-0.52-0.105-0.707-0.293s-0.293-0.442-0.293-0.707zM4 19c0-0.265 0.105-0.52 0.293-0.707s0.442-0.293 0.707-0.293h22c0.265 0 0.52 0.105 0.707 0.293s0.293 0.442 0.293 0.707-0.105 0.52-0.293 0.707c-0.187 0.188-0.442 0.293-0.707 0.293h-22c-0.265 0-0.52-0.105-0.707-0.293s-0.293-0.442-0.293-0.707zM4 13c0-0.265 0.105-0.52 0.293-0.707s0.442-0.293 0.707-0.293h22c0.265 0 0.52 0.105 0.707 0.293s0.293 0.442 0.293 0.707-0.105 0.52-0.293 0.707c-0.187 0.188-0.442 0.293-0.707 0.293h-22c-0.265 0-0.52-0.105-0.707-0.293s-0.293-0.442-0.293-0.707zM4 7c0-0.265 0.105-0.52 0.293-0.707s0.442-0.293 0.707-0.293h22c0.265 0 0.52 0.105 0.707 0.293s0.293 0.442 0.293 0.707-0.105 0.52-0.293 0.707c-0.187 0.188-0.442 0.293-0.707 0.293h-22c-0.265 0-0.52-0.105-0.707-0.293s-0.293-0.442-0.293-0.707z"></path>
    </symbol>
    <symbol id="icon-arrow-clockwise" viewBox="0 0 32 32">
      <path d="M16 6a10.006 10.006 0 0 0-9.594 7.19 10.005 10.005 0 0 0 4.201 11.229 10.005 10.005 0 0 0 11.957-.871 10.003 10.003 0 0 0 2.528-11.719c-.098-.239-.1-.506-.006-.747s.279-.435.513-.542a.999.999 0 0 1 1.309.455 12 12 0 1 1-10.907-6.994v2z"/>
      <path d="M16 8.932V1.068a.498.498 0 0 1 .82-.383l4.72 3.932a.5.5 0 0 1 0 .768l-4.72 3.932a.498.498 0 0 1-.82-.383z"/>
    </symbol>
    <symbol id="icon-x-close" viewBox="0 0 32 32">
      <path d="M4.292 5.708A.991.991 0 0 1 3.999 5a1.006 1.006 0 0 1 .618-.925 1.01 1.01 0 0 1 .766 0c.121.05.232.124.325.217L16 14.586 26.292 4.292A.991.991 0 0 1 27 3.999a1.006 1.006 0 0 1 .925.618 1.006 1.006 0 0 1-.217 1.091L17.414 16l10.294 10.292a.991.991 0 0 1 .293.708 1.006 1.006 0 0 1-.618.925 1.006 1.006 0 0 1-1.091-.217L16 17.414 5.708 27.708a.991.991 0 0 1-.708.293 1.006 1.006 0 0 1-.925-.618 1.006 1.006 0 0 1 .217-1.091L14.586 16 4.292 5.708z"/>
    </symbol>
    <symbol id="icon-gear" viewBox="0 0 32 32">
      <path d="M16 9.508a6.49 6.49 0 1 0 6.492 6.49A6.49 6.49 0 0 0 16 9.506zM11.508 16A4.489 4.489 0 0 1 16 11.508 4.489 4.489 0 0 1 20.492 16 4.489 4.489 0 0 1 16 20.492 4.489 4.489 0 0 1 11.508 16z"/>
      <path d="M19.592 2.686c-1.054-3.58-6.13-3.58-7.184 0l-.188.638a1.754 1.754 0 0 1-1.006 1.12 1.756 1.756 0 0 1-1.504-.079l-.584-.32c-3.28-1.784-6.866 1.804-5.08 5.082l.318.584a1.746 1.746 0 0 1-1.041 2.51l-.638.188c-3.58 1.054-3.58 6.13 0 7.184l.638.188a1.754 1.754 0 0 1 1.12 1.006 1.756 1.756 0 0 1-.079 1.504l-.32.584c-1.784 3.28 1.802 6.868 5.082 5.08l.584-.318a1.746 1.746 0 0 1 2.51 1.04l.188.638c1.054 3.58 6.13 3.58 7.184 0l.188-.638a1.754 1.754 0 0 1 1.006-1.12 1.74 1.74 0 0 1 1.504.08l.584.32c3.28 1.786 6.868-1.804 5.08-5.082l-.318-.584a1.746 1.746 0 0 1 1.04-2.51l.638-.188c3.58-1.054 3.58-6.13 0-7.184l-.638-.188a1.754 1.754 0 0 1-1.12-1.006 1.74 1.74 0 0 1 .08-1.504l.32-.584c1.786-3.28-1.804-6.866-5.082-5.08l-.584.318a1.746 1.746 0 0 1-2.51-1.041l-.188-.638zm-5.266.566c.492-1.67 2.856-1.67 3.348 0l.188.638a3.748 3.748 0 0 0 5.385 2.23l.582-.32c1.528-.83 3.2.84 2.368 2.37l-.318.584a3.756 3.756 0 0 0-.171 3.225 3.738 3.738 0 0 0 2.402 2.159l.636.188c1.67.492 1.67 2.856 0 3.348l-.638.188a3.748 3.748 0 0 0-2.23 5.385l.32.582c.83 1.528-.84 3.2-2.37 2.368l-.582-.318a3.76 3.76 0 0 0-3.227-.171 3.75 3.75 0 0 0-2.159 2.403l-.188.636c-.492 1.67-2.856 1.67-3.348 0l-.188-.638a3.737 3.737 0 0 0-2.16-2.401 3.755 3.755 0 0 0-3.225.171l-.584.32c-1.528.83-3.2-.84-2.368-2.37l.318-.582c.268-.491.423-1.036.452-1.594s-.066-1.116-.279-1.633a3.745 3.745 0 0 0-2.404-2.161l-.638-.188c-1.67-.492-1.67-2.856 0-3.348l.638-.188a3.742 3.742 0 0 0 2.229-5.382l-.32-.584c-.83-1.528.84-3.2 2.37-2.368l.584.318a3.756 3.756 0 0 0 3.225.171 3.748 3.748 0 0 0 2.16-2.401l.188-.638z"/>
    </symbol>
    <symbol id="icon-bell" viewBox="0 0 32 32">
      <path d="M16 32c1.061 0 2.078-0.421 2.828-1.172s1.172-1.768 1.172-2.828h-8c0 1.061 0.421 2.078 1.172 2.828s1.768 1.172 2.828 1.172zM16 3.836l-1.594 0.322c-1.808 0.368-3.433 1.35-4.601 2.779s-1.805 3.218-1.805 5.063c0 1.256-0.268 4.394-0.918 7.484-0.32 1.534-0.752 3.132-1.326 4.516h20.488c-0.574-1.384-1.004-2.98-1.326-4.516-0.65-3.090-0.918-6.228-0.918-7.484-0.001-1.845-0.639-3.633-1.806-5.062s-2.792-2.41-4.6-2.778l-1.594-0.324zM28.44 24c0.446 0.894 0.962 1.602 1.56 2h-28c0.598-0.398 1.114-1.106 1.56-2 1.8-3.6 2.44-10.24 2.44-12 0-4.84 3.44-8.88 8.010-9.802-0.028-0.278 0.003-0.559 0.090-0.824s0.229-0.51 0.417-0.717c0.188-0.207 0.416-0.373 0.672-0.486s0.532-0.172 0.811-0.172c0.28 0 0.556 0.059 0.811 0.172s0.484 0.279 0.672 0.486 0.329 0.452 0.417 0.717c0.087 0.266 0.118 0.546 0.090 0.824 2.261 0.46 4.293 1.687 5.752 3.473s2.257 4.022 2.258 6.329c0 1.76 0.64 8.4 2.44 12z"></path>
    </symbol>
    <symbol id="icon-search" viewBox="0 0 32 32">
      <path d="M23.484 20.688c1.937-2.643 2.804-5.919 2.429-9.174s-1.966-6.248-4.453-8.38c-2.487-2.132-5.688-3.247-8.962-3.121s-6.379 1.484-8.695 3.801c-2.316 2.317-3.671 5.424-3.795 8.698s0.993 6.474 3.127 8.96c2.134 2.486 5.128 4.074 8.383 4.447s6.531-0.497 9.172-2.435h-0.002c0.060 0.080 0.124 0.156 0.196 0.23l7.7 7.7c0.375 0.375 0.884 0.586 1.414 0.586s1.040-0.21 1.415-0.585c0.375-0.375 0.586-0.884 0.586-1.414s-0.21-1.039-0.585-1.415l-7.7-7.7c-0.072-0.072-0.148-0.137-0.23-0.198zM24 13c0 1.445-0.284 2.875-0.837 4.21s-1.363 2.547-2.384 3.569-2.234 1.832-3.569 2.384c-1.335 0.553-2.765 0.837-4.209 0.837s-2.875-0.284-4.21-0.837c-1.335-0.553-2.547-1.363-3.569-2.384s-1.832-2.234-2.385-3.569c-0.553-1.335-0.837-2.765-0.837-4.21 0-2.917 1.159-5.715 3.222-7.778s4.861-3.222 7.778-3.222c2.917 0 5.715 1.159 7.778 3.222s3.222 4.861 3.222 7.778z"></path>
    </symbol>
    <symbol id="icon-done" viewBox="0 0 32 32">
      <path d="M27.708 7.292c0.093 0.093 0.167 0.203 0.217 0.325s0.076 0.252 0.076 0.383-0.026 0.262-0.076 0.383c-0.050 0.121-0.124 0.232-0.217 0.325l-14 14c-0.093 0.093-0.203 0.167-0.325 0.217s-0.252 0.076-0.383 0.076c-0.132 0-0.262-0.026-0.383-0.076s-0.232-0.124-0.325-0.217l-7-7c-0.188-0.188-0.293-0.442-0.293-0.708s0.106-0.52 0.293-0.708c0.188-0.188 0.442-0.293 0.708-0.293s0.52 0.105 0.708 0.293l6.292 6.294 13.292-13.294c0.093-0.093 0.203-0.167 0.325-0.217s0.252-0.076 0.383-0.076c0.132 0 0.262 0.026 0.383 0.076s0.232 0.124 0.325 0.217z"></path>
    </symbol>
    <symbol id="icon-geotag" viewBox="0 0 32 32">
      <path d="M16 32c0 0 12-11.372 12-20 0-3.183-1.264-6.235-3.515-8.485s-5.303-3.515-8.485-3.515c-3.183 0-6.235 1.264-8.485 3.515s-3.515 5.303-3.515 8.485c0 8.628 12 20 12 20zM16 18c-1.591 0-3.117-0.632-4.243-1.757s-1.757-2.651-1.757-4.243 0.632-3.117 1.757-4.243c1.125-1.125 2.651-1.757 4.243-1.757s3.117 0.632 4.243 1.757c1.125 1.125 1.757 2.651 1.757 4.243s-0.632 3.117-1.757 4.243c-1.125 1.125-2.651 1.757-4.243 1.757z"></path>
    </symbol>
    <symbol id="icon-down" viewBox="0 0 32 32">
      <path d="M3.292 9.292c0.093-0.093 0.203-0.167 0.325-0.217s0.252-0.076 0.383-0.076c0.132 0 0.262 0.026 0.383 0.076s0.232 0.124 0.325 0.217l11.292 11.294 11.292-11.294c0.093-0.093 0.203-0.167 0.325-0.217s0.252-0.076 0.383-0.076 0.262 0.026 0.383 0.076c0.122 0.050 0.232 0.124 0.325 0.217s0.167 0.203 0.217 0.325c0.050 0.121 0.076 0.252 0.076 0.383s-0.026 0.262-0.076 0.383c-0.050 0.121-0.124 0.232-0.217 0.325l-12 12c-0.093 0.093-0.203 0.167-0.325 0.217s-0.252 0.076-0.383 0.076c-0.132 0-0.262-0.026-0.383-0.076s-0.232-0.124-0.325-0.217l-12-12c-0.093-0.093-0.167-0.203-0.217-0.325s-0.076-0.252-0.076-0.383c0-0.132 0.026-0.262 0.076-0.383s0.124-0.232 0.217-0.325z"></path>
    </symbol>
    <symbol id="icon-up" viewBox="0 0 32 32">
      <path d="M15.292 9.292c0.093-0.093 0.203-0.167 0.325-0.217s0.252-0.076 0.383-0.076c0.132 0 0.262 0.026 0.383 0.076s0.232 0.124 0.325 0.217l12 12c0.188 0.188 0.293 0.442 0.293 0.708s-0.106 0.52-0.293 0.708c-0.188 0.188-0.442 0.293-0.708 0.293s-0.52-0.105-0.708-0.293l-11.292-11.294-11.292 11.294c-0.188 0.188-0.442 0.293-0.708 0.293s-0.52-0.105-0.708-0.293c-0.188-0.188-0.293-0.442-0.293-0.708s0.106-0.52 0.293-0.708l12-12z"></path>
    </symbol>
    <symbol id="icon-dash" viewBox="0 0 32 32">
      <path d="M4 16c0-0.265 0.105-0.52 0.293-0.707s0.442-0.293 0.707-0.293h22c0.265 0 0.519 0.105 0.707 0.293s0.293 0.442 0.293 0.707-0.105 0.52-0.293 0.707c-0.188 0.188-0.442 0.293-0.707 0.293h-22c-0.265 0-0.52-0.105-0.707-0.293s-0.293-0.442-0.293-0.707z"></path>
    </symbol>
    <symbol id="icon-plus" viewBox="0 0 32 32">
      <path d="M16 8c0.265 0 0.52 0.105 0.707 0.293s0.293 0.442 0.293 0.707v6h6c0.265 0 0.52 0.105 0.707 0.293s0.293 0.442 0.293 0.707-0.105 0.52-0.293 0.707c-0.188 0.188-0.442 0.293-0.707 0.293h-6v6c0 0.265-0.105 0.52-0.293 0.707s-0.442 0.293-0.707 0.293-0.52-0.105-0.707-0.293c-0.188-0.188-0.293-0.442-0.293-0.707v-6h-6c-0.265 0-0.52-0.105-0.707-0.293s-0.293-0.442-0.293-0.707c0-0.265 0.105-0.52 0.293-0.707s0.442-0.293 0.707-0.293h6v-6c0-0.265 0.105-0.52 0.293-0.707s0.442-0.293 0.707-0.293z"></path>
    </symbol>
    <symbol id="icon-minus" viewBox="0 0 16 16">
      <path d="M4 7.99988C4 7.86727 4.05268 7.74009 4.14645 7.64632C4.24021 7.55256 4.36739 7.49988 4.5 7.49988H11.5C11.6326 7.49988 11.7598 7.55256 11.8536 7.64632C11.9473 7.74009 12 7.86727 12 7.99988C12 8.13249 11.9473 8.25966 11.8536 8.35343C11.7598 8.4472 11.6326 8.49988 11.5 8.49988H4.5C4.36739 8.49988 4.24021 8.4472 4.14645 8.35343C4.05268 8.25966 4 8.13249 4 7.99988Z"/>
    </symbol>
    <!-- Companies icons -->
    <symbol id="icon-sass" viewBox="0 0 32 32">
      <path d="M31.986 20.504c-0.092-0.745-0.469-1.391-1.125-1.923-0.008-0.010-0.017-0.019-0.027-0.027l-0.033-0.024-0.011-0.008-0.404-0.29c-0.016-0.009-0.034-0.017-0.052-0.022-1.101-0.656-2.924-1.115-5.714-0.131-0.666-1.12-0.741-2.018-0.296-3.393 0.079-0.239 0.006-0.398-0.232-0.5-0.478-0.203-1.131-0.099-1.595 0.023-0.216 0.056-0.346 0.179-0.387 0.364-0.294 1.375-1.148 2.631-1.973 3.844l-0.049 0.071c-0.509-1.079-0.403-1.914-0.049-2.961 0.071-0.209 0.015-0.348-0.181-0.451-0.546-0.282-1.366-0.088-1.692 0.008-0.414 0.121-0.857 1.239-1.353 2.578-0.125 0.337-0.233 0.625-0.297 0.759-0.153 0.313-0.299 0.669-0.454 1.047-0.35 0.856-0.744 1.819-1.308 2.424-0.205-0.453 0.118-1.168 0.431-1.861 0.371-0.819 0.721-1.594 0.317-2.088-0.064-0.078-0.143-0.142-0.232-0.189s-0.188-0.074-0.288-0.081c-0.131-0.010-0.263 0.011-0.384 0.063 0.042-0.353 0.044-0.632-0.059-0.969-0.148-0.481-0.531-0.75-1.058-0.736-1.201 0.035-2.218 0.93-2.859 1.675-0.428 0.5-1.375 0.881-2.207 1.216-0.329 0.139-0.641 0.264-0.902 0.389-0.416-0.351-0.944-0.706-1.5-1.080-1.563-1.049-3.333-2.238-3.394-3.851-0.087-2.382 2.625-4.071 4.992-5.277 1.794-0.912 3.354-1.517 4.769-1.848 1.988-0.464 3.666-0.371 4.989 0.277 0.724 0.354 1.062 1.125 0.847 1.918-0.562 2.059-2.893 3.471-4.886 4.106-1.201 0.383-2.223 0.543-3.125 0.49-1.131-0.066-2.055-0.633-2.45-0.875-0.063-0.043-0.13-0.081-0.2-0.113l-0.018-0.004c-0.036-0.009-0.073-0.008-0.109 0.003s-0.067 0.032-0.091 0.059c-0.081 0.097-0.053 0.25-0.023 0.328 0.384 1.004 1.178 1.639 2.359 1.886 0.386 0.077 0.78 0.115 1.174 0.112 2.763 0 6.289-1.593 7.584-2.905 0.883-0.894 1.526-1.813 1.793-3.397 0.278-1.659-0.847-2.813-1.993-3.344-2.786-1.286-5.949-0.777-8.113-0.125-2.531 0.763-5.15 2.151-7.184 3.808-2.507 2.042-3.414 3.937-2.695 5.641 0.738 1.746 2.538 2.837 4.279 3.894 0.563 0.341 1.098 0.665 1.579 1-0.145 0.071-0.293 0.142-0.444 0.214-1.461 0.708-3.119 1.505-4.038 2.822-0.667 0.959-0.792 1.914-0.371 2.839 0.225 0.492 0.625 0.826 1.181 0.992 0.289 0.082 0.588 0.122 0.889 0.118 1.082 0 2.272-0.438 2.921-0.842 1.145-0.719 1.887-1.684 2.206-2.868 0.284-1.054 0.216-2.101-0.197-3.035l1.403-0.707c-0.677 2.25-0.158 3.594 0.412 4.335 0.21 0.273 0.589 0.438 1.012 0.445s0.813-0.152 1.033-0.423c0.416-0.516 0.724-1.119 1.007-1.722-0.015 0.394 0.004 0.793 0.138 1.131 0.121 0.304 0.319 0.506 0.576 0.584 0.273 0.083 0.592 0.013 0.899-0.197 1.386-0.948 2.333-3.224 3.094-5.053 0.108-0.26 0.212-0.51 0.313-0.744 0.188 0.674 0.45 1.325 0.781 1.942 0.074 0.134 0.067 0.192-0.032 0.303-0.151 0.165-0.361 0.364-0.583 0.576-0.674 0.639-1.512 1.437-1.625 2.139-0.044 0.281 0.15 0.538 0.451 0.596 0.904 0.18 1.994-0.083 2.915-0.703 0.837-0.562 1.152-1.347 0.937-2.324-0.208-0.941 0.267-2.11 1.412-3.476 0.188 0.783 0.438 1.416 0.783 1.971l-0.009 0.008c-0.834 0.728-1.976 1.725-1.799 2.934 0.015 0.115 0.054 0.226 0.114 0.325s0.14 0.185 0.235 0.251c0.102 0.069 0.216 0.115 0.337 0.137s0.244 0.019 0.363-0.009c1.092-0.229 1.914-0.691 2.511-1.411s0.379-1.517 0.178-2.136c1.563-0.424 2.954-0.413 4.256 0.031 0.731 0.25 1.256 0.661 1.558 1.227 0.381 0.713 0.175 1.371-0.581 1.853-0.232 0.148-0.344 0.239-0.351 0.353-0.002 0.027 0.003 0.053 0.014 0.077s0.027 0.046 0.048 0.062c0.087 0.072 0.357 0.197 0.968-0.188 0.563-0.353 0.892-0.834 0.977-1.437 0.017-0.166 0.017-0.334-0.001-0.501zM7.003 22.071l-0.006 0.080c-0.098 0.915-0.563 1.713-1.384 2.375-0.516 0.416-1.077 0.672-1.578 0.721-0.35 0.034-0.604-0.014-0.756-0.142-0.113-0.096-0.174-0.239-0.188-0.438-0.103-1.593 2.395-3.175 3.801-3.696 0.1 0.357 0.138 0.729 0.111 1.099zM13.4 17.579c-0.231 1.318-0.906 3.806-1.966 4.772-0.051 0.046-0.093 0.062-0.113 0.058s-0.034-0.027-0.050-0.063c-0.354-0.82-0.223-2.205 0.313-3.293 0.412-0.839 1-1.394 1.658-1.562 0.027-0.008 0.055-0.012 0.084-0.012 0.022-0.002 0.044 0.004 0.062 0.017 0.008 0.012 0.013 0.026 0.015 0.040s0.001 0.029-0.003 0.043zM18.618 22.384c-0.199 0.208-0.473 0.18-0.408 0.104l1.015-1.078c-0.082 0.371-0.324 0.678-0.607 0.974zM22.829 21.453c-0.097 0.048-0.201 0.077-0.308 0.087-0.029-0.567 0.521-1.205 1.062-1.631 0.146 0.591-0.152 1.216-0.754 1.544z"></path>
    </symbol>
    <symbol id="icon-healthicons" viewBox="0 0 32 32">
      <path d="M16.639 10.201l6.219 3.937-1.16 0.844-5.749-3.639-5.693 3.637-1.152-0.847 6.151-3.929c0.206-0.133 0.446-0.203 0.691-0.204s0.485 0.069 0.692 0.201z"></path>
      <path d="M4.557 13.942l10.63 7.806c0.457 0.335 1.067 0.337 1.524 0.003l10.727-7.807c0.779-0.567 0.741-1.773-0.070-2.287l-10.729-6.791c-0.207-0.132-0.447-0.201-0.692-0.201s-0.485 0.071-0.691 0.204l-10.629 6.792c-0.805 0.514-0.843 1.713-0.071 2.28zM5.345 12.785l10.605-6.775 10.709 6.78c0.005 0.011 0.008 0.022 0.008 0.034s-0.002 0.025-0.007 0.037c0 0.001-0 0.002-0.001 0.003l-0.005 0.004-10.703 7.787-10.605-7.787c-0.002-0.001-0.003-0.002-0.005-0.004l-0.002-0.004c-0.005-0.011-0.007-0.024-0.006-0.036s0.003-0.023 0.008-0.034l0.001-0.002 0.003-0.003z"></path>
      <path d="M5.491 16.443l1.152 0.847-1.298 0.829c-0.001 0.001-0.002 0.002-0.003 0.003l-0.001 0.002c-0.005 0.010-0.008 0.022-0.008 0.033-0.001 0.013 0.002 0.027 0.007 0.039 0 0 0 0.001 0.001 0.001l0.005 0.004 10.605 7.787 10.71-7.795c0.005-0.012 0.007-0.024 0.006-0.037s-0.003-0.023-0.008-0.034l-0.001-0.002-0.003-0.002-1.32-0.836 1.16-0.843 0.873 0.553c0.811 0.513 0.849 1.72 0.070 2.287l-10.727 7.806c-0.457 0.333-1.067 0.331-1.524-0.003l-10.63-7.807c-0.772-0.567-0.735-1.765 0.071-2.28l0.864-0.552z"></path>
    </symbol>
    <symbol id="icon-meta" viewBox="0 0 32 32">
      <path d="M29.75 18.664c0 1.969-0.384 3.646-1.11 4.851-0.881 1.462-2.25 2.235-3.96 2.235-3.343 0-5.788-4.564-8.375-9.396-2.162-4.032-4.611-8.604-7.055-8.604-2.91 0-5.5 6.104-5.5 10.914 0 1.696 0.31 3.105 0.895 4.077 0.612 1.015 1.487 1.509 2.675 1.509 2.020 0 4.039-3.133 5.75-6.196 0.105-0.157 0.265-0.268 0.448-0.312s0.377-0.017 0.541 0.075c0.165 0.092 0.289 0.243 0.347 0.422s0.047 0.374-0.032 0.546c-1.875 3.37-4.125 6.966-7.055 6.966-1.709 0-3.079-0.773-3.96-2.235-0.726-1.205-1.11-2.883-1.11-4.851 0-5.061 2.726-12.414 7-12.414 3.343 0 5.787 4.564 8.375 9.396 2.161 4.032 4.61 8.604 7.055 8.604 1.188 0 2.063-0.494 2.675-1.509 0.585-0.973 0.895-2.381 0.895-4.077 0-4.81-2.589-10.914-5.5-10.914-1.125 0-2.364 0.97-3.767 2.966-0.115 0.163-0.289 0.273-0.485 0.307s-0.398-0.011-0.561-0.126c-0.163-0.115-0.273-0.289-0.308-0.485s0.011-0.398 0.126-0.56c1.089-1.546 2.791-3.603 4.995-3.603 4.274 0 7 7.353 7 12.414z"></path>
    </symbol>
    <symbol id="icon-corporal" viewBox="0 0 32 32">
      <path d="M15.999 5.819c-1.85 2.98-5.912 7.847-9.374 10.281v3.306c3.32-2.433 6.57-5.784 8.785-9.107l0.59-0.885 0.59 0.885c2.208 3.313 5.498 6.643 8.785 9.092v-3.287c-3.524-2.434-7.541-7.309-9.376-10.285zM15.999 12.594c-1.85 2.98-5.912 7.848-9.374 10.282v3.305c3.32-2.433 6.57-5.784 8.785-9.107l0.59-0.885 0.59 0.885c2.208 3.313 5.498 6.644 8.785 9.092v-3.287c-3.524-2.434-7.541-7.309-9.376-10.285v-0z"></path>
    </symbol>
    <symbol id="icon-system" viewBox="0 0 32 32">
      <path stroke-linejoin="round" stroke-linecap="round" stroke-miterlimit="4" stroke-width="0.6154" d="M28.19 12.19l-4.571-6.095h-15.224l-4.585 6.095M28.19 12.19l-12.19 15.238M28.19 12.19h-24.381M16 27.429l-12.191-15.238M16 27.429l-4.571-15.238M16 27.429l4.571-15.238"></path>
      <path stroke-linejoin="round" stroke-linecap="round" stroke-miterlimit="4" stroke-width="0.6154" d="M8.395 6.095l3.034 6.095 4.571-6.095 4.571 6.095 3.048-6.095"></path>
    </symbol>
    <symbol id="icon-thunder" viewBox="0 0 32 32">
      <path stroke-linejoin="round" stroke-linecap="round" stroke-miterlimit="4" stroke-width="0.6154" d="M11.105 27.17c1.754-1.103 2.945-4.855 0.685-6.823l-5.275 7.735c-0.427 0.624-0.2 1.289 1.13 0.67l13.127-6.117c0.255-0.123 0.483-0.296 0.671-0.507s0.333-0.458 0.426-0.725c0.093-0.267 0.132-0.551 0.116-0.833s-0.088-0.559-0.212-0.814l-0.004-0.008-4.56-9.85c-0.547-1.126 0.323-2.903 1.924-4.209M20.894 4.83c-1.753 1.103-2.945 4.855-0.685 6.823l5.275-7.735c0.427-0.624 0.2-1.289-1.13-0.67l-13.127 6.117c-0.255 0.123-0.483 0.296-0.671 0.507s-0.333 0.458-0.426 0.725-0.132 0.551-0.116 0.833c0.016 0.283 0.088 0.559 0.212 0.814l0.004 0.008 4.56 9.85c0.547 1.126-0.323 2.903-1.924 4.21"></path>
    </symbol>
  </defs>
</svg>
