<svg width="52" height="52" viewBox="0 0 52 52" fill="none" xmlns="http://www.w3.org/2000/svg">
<path d="M18.0459 44.1512C20.8962 42.3583 22.8321 36.2624 19.1596 33.0644L10.5872 45.6343C9.89386 46.6483 10.2622 47.7295 12.4234 46.7231L20.3274 43.0343L33.7554 36.7835C34.1695 36.583 34.5401 36.303 34.846 35.9593C35.1519 35.6156 35.3871 35.2151 35.5382 34.7805C35.6893 34.3459 35.7533 33.8858 35.7266 33.4265C35.6999 32.9672 35.583 32.5176 35.3825 32.1035L35.376 32.0905L27.966 16.0842C27.0777 14.2545 28.4904 11.3663 31.0925 9.24406M33.9525 7.84873C31.1034 9.64164 29.1664 15.7376 32.8399 18.9356L41.4124 6.36564C42.1057 5.35164 41.7374 4.27048 39.5761 5.27689L31.6721 8.96565L18.2442 15.2165C17.83 15.4169 17.4594 15.697 17.1535 16.0407C16.8476 16.3843 16.6124 16.7849 16.4613 17.2195C16.3102 17.6541 16.2462 18.1141 16.2729 18.5735C16.2996 19.0328 16.4166 19.4823 16.617 19.8965L16.6235 19.9095L24.0335 35.9157C24.9219 37.7455 23.5092 40.6336 20.907 42.757" stroke="#FAFAFB" stroke-linecap="round" stroke-linejoin="round"/>
</svg>
