<svg width="52" height="52" viewBox="0 0 52 52" fill="none" xmlns="http://www.w3.org/2000/svg">
<path d="M25.9978 9.45575C22.9917 14.2979 16.3905 22.2076 10.7656 26.1625V31.5343C16.1599 27.5815 21.4412 22.136 25.0413 16.7356L26 15.2977L26.9587 16.7359C30.5473 22.1187 35.8925 27.5315 41.2344 31.5101V26.1687C35.5073 22.2141 28.9805 14.2914 25.9978 9.45575ZM25.9978 20.4654C22.9917 25.3076 16.3906 33.2176 10.7656 37.1729V42.5442C16.1599 38.5914 21.4412 33.1459 25.0413 27.7455L26 26.3077L26.9587 27.7456C30.5473 33.1284 35.8925 38.5415 41.2344 42.5202V37.1787C35.5073 33.2241 28.9805 25.3012 25.9978 20.4655V20.4654Z" fill="#FAFAFB"/>
</svg>
