<svg width="52" height="52" viewBox="0 0 52 52" fill="none" xmlns="http://www.w3.org/2000/svg">
<path d="M27.0386 16.5761L37.1451 22.9732L35.2601 24.3447L25.9185 18.4318L16.6679 24.3425L14.7959 22.9667L24.7918 16.5815C25.1267 16.3661 25.5163 16.2511 25.9144 16.2501C26.3126 16.2492 26.7027 16.3623 27.0386 16.5761Z" fill="#FAFAFB"/>
<path fill-rule="evenodd" clip-rule="evenodd" d="M7.40441 22.6558C6.14991 21.7349 6.21058 19.786 7.51924 18.9508L24.7919 7.91378C25.1268 7.69836 25.5164 7.58336 25.9145 7.5824C26.3127 7.58144 26.7028 7.69456 27.0387 7.90836L44.4728 18.9443C45.7912 19.7784 45.8519 21.7393 44.5866 22.6601L27.1547 35.3459C26.4115 35.8876 25.4202 35.8844 24.6782 35.3405L7.40441 22.6558ZM8.68599 20.7751L25.9186 9.76519L43.3137 20.7762L43.3191 20.7794L43.3202 20.7827C43.3285 20.7999 43.333 20.8188 43.3332 20.8379C43.334 20.8584 43.3303 20.8787 43.3223 20.8975C43.3223 20.8995 43.3215 20.9014 43.3202 20.9029L43.3126 20.9094L25.9197 33.5639L8.68708 20.9094C8.68429 20.9076 8.68174 20.9054 8.67949 20.9029L8.67624 20.8964C8.66874 20.8779 8.66542 20.8579 8.66649 20.8379C8.6667 20.8188 8.67114 20.7999 8.67949 20.7827L8.68057 20.7794L8.68599 20.7751Z" fill="#FAFAFB"/>
<path d="M8.92324 26.7194L10.7952 28.0952L8.68599 29.4418C8.68406 29.4431 8.68225 29.4446 8.68057 29.4462L8.67949 29.4494C8.6713 29.4663 8.66686 29.4848 8.66649 29.5036C8.66526 29.5255 8.66935 29.5475 8.67841 29.5675C8.67873 29.5682 8.67909 29.569 8.67949 29.5697L8.68708 29.5762L25.9197 42.2306L43.3126 29.5762L43.3202 29.5697L43.3212 29.5675L43.3234 29.5642C43.331 29.5453 43.3344 29.525 43.3332 29.5047C43.333 29.4855 43.3285 29.4666 43.3202 29.4494L43.3191 29.4462L43.3137 29.4429L41.1687 28.0844L43.0537 26.714L44.4728 27.6121C45.7912 28.4462 45.8519 30.4071 44.5866 31.3279L27.1547 44.0127C26.4115 44.5543 25.4202 44.5511 24.6782 44.0072L7.40441 31.3214C6.14991 30.4006 6.21058 28.4527 7.51924 27.6164L8.92324 26.7194Z" fill="#FAFAFB"/>
</svg>
