<svg width="52" height="52" viewBox="0 0 52 52" fill="none" xmlns="http://www.w3.org/2000/svg">
<g clip-path="url(#clip0_129_2392)">
<path d="M51.9776 33.3196C51.8283 32.109 51.2149 31.0588 50.1495 30.1945C50.1362 30.1784 50.1216 30.1634 50.1058 30.1498L50.052 30.1112L50.0347 30.099L49.469 29.6928L49.4497 29.6786L49.3776 29.6278C49.3511 29.6124 49.3228 29.6004 49.2933 29.5922C47.5038 28.5269 44.5412 27.7804 40.0085 29.38C38.9268 27.56 38.8039 26.1015 39.5281 23.8672C39.6571 23.4782 39.5372 23.2212 39.1513 23.0547C38.3753 22.7246 37.313 22.8932 36.5594 23.0922C36.208 23.1836 35.9967 23.3827 35.9297 23.6844C35.4524 25.9187 34.065 27.9601 32.7234 29.9304L32.6442 30.0462C31.8174 28.2933 31.9891 26.9354 32.5649 25.2342C32.6797 24.895 32.5893 24.6695 32.2714 24.5009C31.3838 24.0429 30.0523 24.3577 29.5221 24.5141C28.8498 24.7101 28.1287 26.5271 27.3233 28.7026C27.1202 29.25 26.9455 29.7182 26.8409 29.9365C26.5921 30.4444 26.3544 31.0233 26.1025 31.6377C25.5338 33.0281 24.8929 34.5932 23.9768 35.5763C23.6437 34.84 24.1678 33.6791 24.6766 32.5528C25.2788 31.2213 25.8476 29.9629 25.1925 29.1596C25.0889 29.0326 24.9604 28.9281 24.8149 28.8527C24.6694 28.7772 24.51 28.7323 24.3465 28.7208C24.1332 28.7046 23.9191 28.7394 23.7219 28.8224C23.7899 28.2486 23.793 27.7956 23.6254 27.2482C23.3857 26.4672 22.7631 26.0294 21.906 26.0528C19.9539 26.1097 18.3025 27.564 17.2595 28.7747C16.5648 29.5872 15.0251 30.2067 13.6733 30.7501C13.1391 30.9765 12.6313 31.1797 12.2078 31.3828C11.5324 30.812 10.6742 30.2361 9.77025 29.6278C7.23119 27.9236 4.35392 25.9908 4.25439 23.3705C4.11221 19.5 8.52002 16.7547 12.3672 14.7956C15.2831 13.3128 17.8181 12.3297 20.1174 11.7924C23.3471 11.0378 26.0751 11.1901 28.2242 12.2433C29.4003 12.8192 29.9507 14.0715 29.6013 15.3593C28.6873 18.7058 24.9 20.999 21.6612 22.0309C19.7102 22.6525 18.0496 22.9125 16.5831 22.8272C14.7448 22.7205 13.2437 21.7983 12.6018 21.4053C12.499 21.3351 12.3902 21.2739 12.2768 21.2225L12.2474 21.2154C12.1892 21.2009 12.1283 21.2027 12.0711 21.2206C12.014 21.2386 11.9628 21.2719 11.9234 21.3169C11.7913 21.4744 11.8381 21.7232 11.8858 21.8491C12.5104 23.4812 13.8003 24.5121 15.7188 24.9133C16.3466 25.039 16.9858 25.0999 17.6261 25.0951C22.1162 25.0951 27.8453 22.5062 29.9497 20.3744C31.3848 18.9221 32.4299 17.4291 32.8625 14.8545C33.3145 12.158 31.4863 10.2842 29.6237 9.42092C25.097 7.33178 19.956 8.15748 16.4399 9.21779C12.3266 10.4579 8.07111 12.7126 4.76627 15.406C0.691581 18.724 -0.781076 21.8044 0.386893 24.572C1.58635 27.4086 4.51135 29.1829 7.33986 30.8994C8.25392 31.4529 9.1233 31.98 9.90635 32.5244C9.67072 32.6391 9.43002 32.7559 9.18525 32.8727C6.81072 34.0234 4.11728 35.3183 2.6233 37.4583C1.53861 39.0172 1.33549 40.5691 2.02002 42.0712C2.38564 42.8705 3.03564 43.4129 3.93853 43.683C4.40821 43.8161 4.89462 43.8807 5.38275 43.875C7.1408 43.875 9.07557 43.164 10.1288 42.5069C11.9894 41.339 13.1949 39.7708 13.7129 37.8462C14.174 36.1339 14.0633 34.4327 13.393 32.9144L15.6731 31.7647C14.5731 35.4209 15.4161 37.6045 16.3424 38.809C16.6836 39.2529 17.2991 39.52 17.9867 39.5322C18.6742 39.5443 19.307 39.2854 19.6645 38.8446C20.3409 38.0067 20.8406 37.0266 21.3006 36.0465C21.2763 36.6864 21.3067 37.3344 21.5251 37.8838C21.7211 38.3784 22.0441 38.7065 22.4605 38.8324C22.9033 38.9675 23.4223 38.8537 23.922 38.5125C26.1736 36.9718 27.7133 33.2739 28.9503 30.3011C29.126 29.8786 29.2946 29.4724 29.4581 29.0926C29.7642 30.1878 30.1899 31.246 30.7277 32.2481C30.8475 32.4654 30.8374 32.5609 30.6749 32.7397C30.4301 33.0078 30.0888 33.3318 29.7273 33.6751C28.6324 34.714 27.2695 36.011 27.0867 37.1515C27.0156 37.6086 27.3304 38.025 27.8189 38.1194C29.2885 38.4119 31.0588 37.9843 32.5558 36.9768C33.9167 36.0628 34.4286 34.7882 34.0792 33.1997C33.741 31.6702 34.5129 29.771 36.3735 27.5508C36.6782 28.8234 37.0845 29.8522 37.6451 30.7531L37.6299 30.7653C36.275 31.9485 34.4185 33.5684 34.7069 35.5336C34.7311 35.7205 34.794 35.9003 34.8916 36.0616C34.9891 36.2228 35.1193 36.3619 35.2736 36.4701C35.4386 36.5814 35.6248 36.6575 35.8205 36.6935C36.0163 36.7295 36.2173 36.7247 36.4111 36.6793C38.1854 36.3065 39.521 35.556 40.4919 34.387C41.4628 33.218 41.1084 31.9221 40.7813 30.9166C43.3204 30.228 45.5812 30.2453 47.6978 30.9674C48.886 31.3736 49.7381 32.0409 50.2297 32.9621C50.8482 34.1209 50.5141 35.1904 49.2862 35.9734C48.9094 36.2141 48.7276 36.3614 48.7164 36.5472C48.7139 36.5904 48.7219 36.6335 48.7395 36.6729C48.7572 36.7123 48.7841 36.7469 48.818 36.7737C48.9602 36.8905 49.3989 37.0936 50.3912 36.469C51.3053 35.8952 51.8415 35.1142 51.9786 34.1331C52.0062 33.8626 52.0059 33.59 51.9776 33.3196ZM11.38 35.8647L11.3699 35.9947C11.2114 37.4816 10.4558 38.7776 9.12025 39.8541C8.28135 40.5305 7.37033 40.9459 6.5558 41.0251C5.98705 41.08 5.57369 41.0028 5.32791 40.7946C5.14408 40.6392 5.04557 40.4066 5.02322 40.0836C4.85666 37.4958 8.9151 34.9243 11.1992 34.0783C11.3622 34.6588 11.4234 35.2633 11.38 35.8647ZM21.7749 28.5665C21.3992 30.7084 20.3033 34.7516 18.5808 36.3208C18.4985 36.3959 18.4295 36.4223 18.398 36.4152C18.3665 36.4081 18.3421 36.3705 18.3167 36.3136C17.7419 34.9811 17.9542 32.7305 18.8245 30.9623C19.4938 29.5993 20.4495 28.6965 21.518 28.4233C21.5623 28.411 21.6081 28.4045 21.6541 28.404C21.6901 28.4014 21.7258 28.4111 21.7556 28.4314C21.7682 28.4513 21.7764 28.4736 21.7798 28.4969C21.7831 28.5201 21.7814 28.5439 21.7749 28.5665ZM30.2544 36.3746C29.9304 36.7128 29.4866 36.6671 29.5912 36.5432L31.2406 34.7922C31.1075 35.3945 30.7145 35.8932 30.2544 36.3746ZM37.0967 34.8603C36.9398 34.9376 36.7701 34.9854 36.596 35.0015C36.5492 34.0803 37.442 33.0433 38.3225 32.3517C38.5592 33.3125 38.0747 34.3281 37.0967 34.8603Z" fill="#FAFAFB"/>
</g>
<defs>
<clipPath id="clip0_129_2392">
<rect width="52" height="52" fill="white"/>
</clipPath>
</defs>
</svg>
