<svg width="52" height="52" viewBox="0 0 52 52" fill="none" xmlns="http://www.w3.org/2000/svg">
<path d="M48.3438 30.3286C48.3438 33.5278 47.7202 36.2537 46.54 38.2119C45.108 40.5884 42.8838 41.8438 40.105 41.8438C34.6734 41.8438 30.7003 34.4277 26.4956 26.5748C22.9816 20.022 19.0023 12.5938 15.0312 12.5938C10.3025 12.5938 6.09375 22.5123 6.09375 30.3286C6.09375 33.085 6.5975 35.3742 7.54813 36.9545C8.54344 38.6039 9.96531 39.4062 11.895 39.4062C15.1775 39.4062 18.458 34.3159 21.2388 29.3373C21.4091 29.0825 21.6692 28.9012 21.9673 28.8296C22.2654 28.758 22.5795 28.8013 22.847 28.951C23.1145 29.1006 23.3158 29.3456 23.4108 29.637C23.5058 29.9285 23.4874 30.2451 23.3594 30.5236C20.3125 35.9998 16.6562 41.8438 11.895 41.8438C9.11828 41.8438 6.89203 40.5884 5.46 38.2119C4.27984 36.2537 3.65625 33.5278 3.65625 30.3286C3.65625 22.1041 8.08641 10.1562 15.0312 10.1562C20.4628 10.1562 24.4359 17.5723 28.6406 25.4252C32.1527 31.978 36.1319 39.4062 40.105 39.4062C42.0347 39.4062 43.4566 38.6039 44.4519 36.9545C45.4025 35.3742 45.9062 33.085 45.9062 30.3286C45.9062 22.5123 41.6995 12.5938 36.9688 12.5938C35.1406 12.5938 33.1277 14.17 30.8466 17.4139C30.6604 17.6784 30.3769 17.8582 30.0582 17.9136C29.7395 17.969 29.4119 17.8956 29.1474 17.7095C28.8829 17.5233 28.7032 17.2397 28.6477 16.9211C28.5923 16.6024 28.6657 16.2748 28.8519 16.0103C30.6211 13.4977 33.3877 10.1562 36.9688 10.1562C43.9136 10.1562 48.3438 22.1041 48.3438 30.3286Z" fill="#FAFAFB"/>
</svg>
